<?xml version="1.0" encoding="UTF-8"?>
<svg id="svg17" xmlns="http://www.w3.org/2000/svg" xmlns:svg="http://www.w3.org/2000/svg" xmlns:sodipodi="http://sodipodi.sourceforge.net/DTD/sodipodi-0.dtd" xmlns:rdf="http://www.w3.org/1999/02/22-rdf-syntax-ns#" xmlns:inkscape="http://www.inkscape.org/namespaces/inkscape" xmlns:dc="http://purl.org/dc/elements/1.1/" xmlns:cc="http://creativecommons.org/ns#" version="1.1" viewBox="0 0 255.2 255.2">
  <!-- Generator: Adobe Illustrator 29.3.1, SVG Export Plug-In . SVG Version: 2.1.0 Build 151)  -->
  <defs>
    <style>
      .st0 {
        fill: #fff;
      }
    </style>
  </defs>
  <sodipodi:namedview id="namedview19" bordercolor="#666666" borderopacity="1" gridtolerance="10" guidetolerance="10" inkscape:current-layer="svg17" inkscape:cx="-210.59166" inkscape:cy="127.55" inkscape:pageopacity="0" inkscape:pageshadow="2" inkscape:window-height="1017" inkscape:window-maximized="1" inkscape:window-width="1920" inkscape:window-x="-8" inkscape:window-y="-8" inkscape:zoom="0.92512738" objecttolerance="10" pagecolor="#ffffff" showgrid="false"/>
  <g id="bZiOE8">
    <g id="g14">
      <path id="path6" class="st0" d="M119.3,0c1.3,2.8,2.6,5.6,3.9,8.4,2.3,5.3,4.5,10.6,6.9,15.8,1.7,3.7,3.5,7.2,5.3,10.9.3.7.7,1.3,1.1,2,2.1,4,4.1,8.1,6.2,12.2,1,2,.6,3.2-1.5,4.1-2.6,1.1-3.6,3.5-4.8,5.8,0,.2.3.8.6.9,2.2.8,4.4,1.5,6.6,2.2,2.7.8,4.8,2.4,6.9,4.2.9.8,1.8,1.5,2.7,2.1.7.5,1.3.3,1.4-.6.3-1.3.6-2.7-.2-3.9-.5-.8,0-1.2.7-1.4,2.1-.7,4.3-1.3,6.6-2,.4.7.7,1.3,1,1.9,1,1.8,3,2.7,4.9,2.4.8-.1,1.4-.5,1.6-1.4.4-1.6.2-3-.9-4.3-.3-.4-.6-.8-.9-1.2.9-.4,1.8-.8,2.6-1.1.2,0,.7.2.9.4.8.7,1.5,1.6,2.4,2.2,1.3.8,2.4.4,3.4-.7,1.2-1.1,2.4-2.2,3.8-3,2-1.2,2.3-1.7,1.8-4.1,0-.2,0-.4,0-.8.6,0,1.1,0,1.5.2,1.4.2,2.5-.1,3.2-1.3,1.1-1.8,2.8-2.8,4.7-3.5,1.1-.4,2.2-.8,3.3-1.2,1-.3,2-.6,2.2-1.9,0-.1.2-.3.3-.4,1-1,4.4-1,5.4,0,.7.7.5,1.4.2,2.1-3.6,8.2-7.2,16.4-11,24.5-1.2,2.6-2.9,4.8-4.2,7.3-1.4,2.8-2.7,5.7-2.5,9,0,1.4-.4,1.9-1.8,1.9-2.3,0-4.6,0-6.8,0-.1,0-.3,0-.6.2.3.4.5.8.7,1.1,1.4,2.3,3.1,4.6,4.3,7.1.8,1.8,1,4,1.4,6s.9,2.4,2.6,1.4c1.2-.7,2.3-1.7,3.4-2.6.9-.7,1.8-1.4,2.6-2.2.1,0,.3-.2.3-.3.4-1.5,1.5-1.1,2.5-.9,2.3.7,4.6,1.4,5.9,3.8.3.5,1.1.8,1.8.9,5.6,1,11.2,1.9,16.8,2.9,2.9.5,5.6,1.5,8.5,1.9,3,.5,5.8,1.6,8.6,2.7,2.4,1,4.8,2.1,7.3,3.1,1.1.4,2.2.7,3.3.9,1.2.2,2.1.8,2.8,1.9.6,1,.3,1.6-.5,2-1.9,1.1-3.9,2.2-5.9,3.2-6.7,3.4-13.5,6.7-20.2,10.2-2.5,1.3-4.8,2.9-7.1,4.4-.8.5-1.3.5-2,0-.8-.7-1.6-1.3-2.5-1.9-1.8-1.2-3.1-1.2-4.5-.1-1.7,1.2-2.5,3.1-2,4.9.3.9.7,1.9,1,2.8-2.1,1-4.1,2.1-6.2,3.1-2.1,1.1-4.1,2.2-4.4,4.9-.2,1.5-.7,1.6-1.9.9-.7-.4-1.2-1-1.8-1.5-.9-.8-1.5-.7-1.8.4-.5,1.7-.8,3.5-1.4,5.2-.5,1.6-1.1,3.2-1.7,4.9-.1.3-.2.6-.3,1.2,1.8-.9,3.3-.7,4.9-.2.6.2,1.3.6,1.7,1.1.7,1.1,1.2,2.3,1.9,3.5,2,3.6,3.9,7.1,6,10.6,2.4,3.9,4.8,7.7,7.4,11.5,1.6,2.3,3.5,4.3,5.1,6.5,2.2,3,4.3,6.1,6.2,9.2.6.9.7,2.3.8,3.4,0,1-.5,1.3-1.3.7-1.1-.8-2.3-.6-3.6-.4-.9.1-1.9,0-2.7-.3-3.9-1.6-7.7-3.9-11.8-4.9-5.9-1.5-11.2-4.2-16.6-6.6-2.5-1.1-4.9-2.1-7.6-2.4-.4,0-.8-.2-1.1-.3-2.2-.6-4.4-1.4-6.7-1.9-1.1-.3-1.6-.8-1.6-1.8,0-1-.2-2.1-.2-3.1,0-.9-.6-1.2-1.4-.8-.5.2-.9.6-1.3,1-3.3,3.9-7.6,6.4-12.2,8.2-.6.2-1.3.2-1.9.2-1.6,0-3.2.4-4.5,1.4-.4.3-.8.6-1.3.7-2.4.6-4.7,1.1-7.1,1.6-1,.2-1.2.9-.8,1.4,1.6,2,2.8,4.3,5.2,5.5.9.4,1,.9.5,1.7-.6.9-1.2,1.9-1.9,2.8-2.7,3.7-5.2,7.6-6.4,12.1-.4,1.6-1.9,2.1-3.3,2.3-.8.1-1.5.1-2.3.2-1,.1-1.5.9-1.1,1.8.5,1.2,1.3,2.1,2.7,2.5.7.2,1.4.8,2,1.4.2.2,0,1-.2,1.3-1.3,1.7-2.6,3.4-3.9,5.1-.4.5-.6,1.1-.9,1.7-.7,1.4-1.3,2.7-1.9,4.1-.3.7-.5,1.4-.8,2.1-.4,1.2-.6,2.4-1.2,3.5-1,1.6-1.5,3.2-1.5,5.1,0,.9,0,1.9-.3,2.7-.4,1.3-1.4,1.5-2.2.4-.8-1.3-1.6-2.8-2-4.3-1.1-3.8-2.1-7.7-3.1-11.6-.2-.7-.5-1.5-.9-2.1-4-6.3-6.7-13.2-8.8-20.3-1.4-4.8-3.8-8.9-7.2-12.6-2-2.2-1.7-2,.3-3.6,2.3-1.8,4.3-3.8,6.4-5.7.4-.4.6-1.1,1.1-1.9-1.2-.1-2.1-.2-3-.3-6.6-.6-12.6-2.6-18.2-6.2-1.1-.7-2.1-1.3-3.5-1.5-.9-.1-1.8-.9-2.6-1.4-.8-.5-1.6-1.1-2.4-1.7-.4,2.6-1.2,5.1.5,7.4.6.8,0,1.4-.8,1.7-2.4.9-4.8,1.8-7.3,2.7-1.6.6-3.3.9-4.9,1.6-11.2,4.3-22.6,8-33.4,13.1-1.3.6-2.8.9-4.2,1-.6,0-1.5-.4-1.7-.9-.3-.5-.3-1.5,0-1.9,2.2-2.9,4.6-5.6,6.8-8.5,3.5-4.5,7.1-8.9,10.2-13.6,1-1.5,1.7-2.2,3.4-2.3,2.2-.2,3.3-2.2,2.7-4.3-.3-.9-.1-1.5.4-2.2,1.8-2.5,3.5-5.1,5.2-7.6.6-.8,1.2-1.3,2.3-1.3,2.2,0,2.3-.3,1.9-2.4,0-.1,0-.3,0-.6,1-.2,1.9-.4,2.8-.5,1-.1,1.2-.6.8-1.5-1.7-3.5-1.5-7.3-1.7-11.1,0-1.4,0-2.9,0-4.3,0-.3-.3-.6-.4-.9-.3.2-.8.3-1,.5-.3.6-.4,1.3-.6,1.9-.2.7-.5,1.4-.8,2.1-.6-.2-1.3-.4-1.9-.7-2.2-1.4-4.3-3.1-6.7-4.2-2.1-1-4.5-1.3-6.7-2.1-4.9-1.6-9.7-3.4-14.6-5.1-.8-.3-1.6-.8-2.3-1.2-1-.6-1.9-1.1-3.2-.9-.7.1-1.5-.4-2.1-.8-1.5-1.1-3.1-1.6-5.1-1.7-1.9,0-3.8-.7-5.6-1.3-.5-.2-1-1-1.1-1.6,0-.4.6-1,1-1.2,5.9-3.1,11.8-6,17.7-9.1,5.5-2.9,11-5.9,16.4-8.9,1-.6,1.9-1.3,2.9-1.9,1.9-1.1,3.7-2.2,5.7-3,2.6-1.1,4.4-2.7,5-5.6.7-3.7,1.8-7.2,3.9-10.4.2-.4.1-1.3-.2-1.7-.6-.7-1.2-1.8-2.4-1.2-.7.3-1.5.7-2.1,1.1-.9.5-1.6.3-2-.6-.8-1.6-1.6-3.2-2.1-4.9-1.9-6.9-3.7-13.8-5.5-20.7-1.3-5.3-2.4-10.7-3.6-16.1-.1-.6-.3-1.2-.2-1.8.1-.5.5-1.1.9-1.3.4-.2,1.3-.3,1.6,0,2.1,1.8,4.7,2.4,7.1,3.5,3.5,1.6,6.9,3.4,10.3,5,2.8,1.3,5.7,2.5,8.6,3.7,2.6,1,5.1,2.1,7.3,3.8,1.3.9,2.8,1.5,4.2,2.2.8.4,1.6.8,2.4,1.4,1.8,1.3,1.8,2.6.3,4.2-.4.5-.8,1-1.1,1.5-.1.2,0,.8.1.9.2.1.7,0,1,0,.2,0,.3-.3.4-.4,2.3-2.8,5.4-4.7,8.8-6.1,2.1-.8,4.1-1.7,6.2-2.6,1.1-.5,1.4-1,.7-1.9-1-1.2-2.2-2.3-3.4-3.3-.2-.2-.8,0-1.1-.2-.6-.2-1.4-.5-1.8-1-.2-.3,0-1.2.2-1.6,1.7-2.8,3.4-5.6,5.1-8.4,4.7-7.5,9.1-15.1,12.6-23.2,2.8-6.5,5.7-12.9,8.2-19.5.1,0,.3,0,.5,0ZM153.1,116.2h0c0-2.8,0-5.6,0-8.4,0-4.6.2-9.3-1.6-13.6-1.6-4-3.8-7.7-5.8-11.6-.3-.6-.9-1.1-1.4-1.6-1.3-1.3-2.6-2.6-3.9-3.8-1.4-1.5-2.8-3-4.9-3.6-4.9-1.5-9.8-2.9-14.7-4.3-.6-.2-1.3.2-1.9.3-1,.2-2,.8-2.9.7-4.2-.5-8.3-.2-11.9,2.4-2.9,2-5.8,4.1-8.7,6.2s-4.4,5.2-5.3,8.3c-1,3.3-1.4,6.8-1.6,10.3-.7,10-1.2,20-1.8,30,0,.8-.4,1.8-.9,2.4-1.3,1.4-.7,3-.8,4.6,0,.7,0,1.4-.2,2.1-.7,2-1.6,3.9-2.4,5.8,0,.1,0,.3-.1.4-.4,1.1-.8,2.3-1.3,3.4-.8,1.5-.8,1.8.4,3,1.5,1.5,2.6,3.2,3.3,5.2.4,1.1.8,2.2,1.4,3.2,1,1.9,3,3.1,4.7,2.7,3.5-.8,6.1,1,8.3,3.1,1.4,1.4,2.7,3,4.2,4.3.6.5.9,1.4,1.4,2.2.2.3.2.8.5,1.1,2.8,3.6,2.9,7.6,2.5,11.9-.2,1.4-.3,2.7-.4,4.1,0,.7,0,1.5,1,1.7.8.2,1.5-.1,1.9-.8.6-.9,1.2-1.9,1.7-2.9.6-.9,1.3-1.1,2.2-.4.5.4.9.9,1.4,1.3.5.4,1.1.6,1.6.9.2-.6.5-1.1.6-1.7.3-1.4.5-2.9.7-4.4.1-.9.5-1,1.2-.4,1.6,1.3,2.1,3,2.2,4.9,0,1.1.5,1.9,1.6,2,1.2.2,2-.2,2.7-1.2.2-.2.2-.5.4-.8.1-.2.3-.4.4-.4.6-.2,3.9,1,4.2,1.5,0,.1,0,.3.1.5.1,1,.8,1.7,1.7,1.7,1,0,.9-1.1,1.1-1.7,1.1-5.2,2-10.4,3.1-15.6.4-1.8.8-3.9,2-5.1,2.3-2.5,5.2-4.5,7.9-6.6,2.2-1.7,4.6-3.2,6.8-4.9.6-.5,1.1-1.2,1.6-1.7.4-.4.8-.9,1.3-1,1.1-.2,1.1-.8,1.1-1.7,0-1.5-.3-3.2.2-4.5.8-2.1.6-3.8-.6-5.6-2.1-3.1-3.5-6.4-3.8-10.1-.3-4.6-.4-9.2-.5-13.7h0ZM177.4,130.7c1.9,0,2.5-.2,3.9-1.3.2-.2.5-.4.7-.4.9,0,1.2-.5,1.3-1.2.4-2.8.9-5.5,1.1-8.3.1-1.2-.4-2.4-1.5-3.3-1.4-1.1-2.8-2.2-4.3-3.3-.4-.3-1.1-.3-1.6-.2-.8.2-1.6.8-2.4,1.1-2.4,1-4.1,2.7-4.8,5.3-.2,1-.5,2-.7,3-.4,1.9-.4,3.7,1.1,5.2,2,2,4.4,3.3,7.1,3.4h0ZM120.4,207.7c2.3.1,4.5-.4,6.1-2.3.1-.1.3-.3.5-.4,1.9-.5,2.1-1.9,1.9-3.4,0-.9-.3-1.7-.5-2.6,0-.3-.2-.6-.2-.8.4-1.2-.2-2-1.1-2.7-1-.8-2.2-1.5-3.3-2.1-.3-.2-1.1,0-1.2.1-.6,1-1.5,1.2-2.5,1.3-1,.1-2,.3-3,.4-2.6.4-4.2,2-4.6,4.6,0,.6-.2,1.2-.3,1.8-.4,2,0,3.2,1.8,4.3,2,1.2,4.1,1.8,6.4,1.6h0ZM57,131.2c0,0,0,.2,0,.3,1-.3,2.1-.6,3.1-.9.9-.3,1.7-.9,2.7-1.1,1.9-.4,2.5-1.8,2.6-3.3.2-2.3-.2-4.6-1.6-6.5-1.1-1.5-2.5-2.1-4.4-2.3-2.1-.2-4,0-5.9.6-2.6.9-4.4,4.3-3.6,7,.6,1.8,1.4,3.4,2.3,5.1.3.5,1,.9,1.5,1,1.1.2,2.2,0,3.3,0h0ZM127.6,50.6c-.2-1.5-2.4-4.7-3.9-5.3-.3-.1-.7,0-1,0-.8.2-1.6.4-2.4.6-4.7,1-7.2,3.9-7.1,8.1.1,2.8,2.1,5,4.8,5.6,2.3.5,4.5.5,6.7-.5.4-.2.9-.6,1.1-1,.7-2.5,1.3-5,1.9-7.5ZM53.2,116.2c.5,0,1.1.2,1.6.2,1.4,0,2.8,0,4.1-.2.2,0,.5-.6.4-.7-.3-.3-.7-.8-1.1-.8-1.2,0-2.4,0-3.5,0s-1.3.4-1.5,1.5ZM138.6,193.9c.5.4.8.6.9.6,1.7-.4,3.4-.9,5.1-1.4.2,0,.3-.7.4-1.1-.4-.1-.8-.4-1.2-.3-1.1.3-2.1.7-3.1,1.2-.6.3-1.2.6-2.1,1h0ZM137,193.8c-1.3,0-2.5,0-3.7,0-.6,0-1.2.3-1,1,.2.6.6,1.2.9,1.8.4-.3.7-.6,1.2-.9.5-.3,1-.7,1.4-.6,1.1.1,1.4-.2,1.2-1.3ZM143.5,181.9c-.8.7-1.2,2-1.1,3.7,0,.3.1.8.4.9.3.1.8,0,1.1-.1,1.4-.8,1.3-3.2-.3-4.5ZM164.6,179.7c-1.5.1-4.4,2.8-4.3,4,2.1,0,4.4-2.1,4.3-4ZM212.4,121.4c1.8.2,3-1.4,2.3-3.1,0-.2-.8-.4-.9-.3-.7,1-1.7,1.9-1.4,3.4ZM140.7,51c-.3-.7-.5-1.3-.8-1.9-.1-.2-.4-.6-.6-.6-.2,0-.5.3-.6.6-.4,1.1.2,1.9,1,2.7.4-.3.7-.6,1.1-.8ZM109.5,219.4c0-.2.1-.3.2-.5-.4-.8-.9-1.5-1.3-2.2-.4-.6-1.1-.4-1.1,0,0,.8.4,1.6.8,2.2.2.3.9.4,1.4.5ZM121.6,43.4c-.4-.3-.7-.7-.9-.6-.8.3-1.5.6-2.2,1-.1,0,0,.5,0,.8.6,0,1.3,0,1.9-.3.4-.1.6-.5,1.1-1ZM214.1,116.3c.4.5.7.9,1,1,.5.2,1.2-1,1.1-1.9,0-.4-.5-.7-.8-1.1-.4.6-.8,1.2-1.3,1.9ZM87.8,86c-.6.9-1.1,1.4-1.4,2.1,0,.2.5.6.8,1,.4-.6,1-1.1,1.3-1.7,0-.2-.3-.7-.7-1.3ZM119.6,242.9c0-.2,0-.3,0-.5,0-.3-.3-.5-.4-.8-.2.2-.6.3-.7.6-.2.3-.4.7-.3,1,.2.5.6.9.9,1.3.1-.4.3-.9.4-1.3,0-.1,0-.2,0-.4ZM181.2,162c.6-.9,1.2-1.6,1.8-2.3-.4-.3-.6-.5-1-.9-.3,1.1-2,1.6-.8,3.2ZM62.2,83.3c-1.9.3-2.4,1.1-1.6,2.7.5-.9,1-1.7,1.6-2.7ZM113.5,231.2c.7-.6.6-1-.7-2.1-.2.2-.5.5-.8.8.6.5,1.1.9,1.5,1.3ZM110.2,221.8c-.6.8-.8,1.4,0,1.9.2.1.8-.2,1.4-.4-.5-.6-.9-1-1.3-1.5ZM61.7,114.6c1,.3,1.4,1.7,2.7.4-1-.1-1.4-1.4-2.7-.4ZM206,119.1c.2-.8.3-1.3.4-1.8-.6,0-1.1,0-1.6,0,0,.1,0,.3,0,.4.3.3.6.7,1.3,1.3ZM79.5,143.7c-.2,0-.3-.1-.5-.2-.4.3-.8.6-1.2,1,.5.6.9,1.1,1.4.4.2-.3.2-.8.2-1.2h0ZM173.9,110.3c-.3.7-.4,1.2-.6,1.7.6-.2,1.2-.4,2-.7-.6-.4-.8-.6-1.3-1h0ZM222.5,107.5c-.3.3-.5.5-.8.8.3.3.6.6.9.9.3-.3.6-.6.9-.8-.4-.3-.7-.6-1.1-.8ZM97.8,185.6c1-1.3.9-1.6-.5-2,.2.6.3,1.2.5,2ZM96.9,51.6c.1,0,.3,0,.4,0,0-.4,0-.8,0-1.2-.4,0-.9.1-1.6.3.5.5.8.7,1.1,1Z" inkscape:connector-curvature="0"/>
      <path id="path8" class="st0" d="M109,155.7c-5.3-.2-10.5-1-15.4-2.9-.6-.2-1.2-.6-1.6-1-1.2-1.2-2.3-2.4-3.4-3.7-.8-.9-1.1-1.9-.8-3.2.6-2.1,1.6-3.9,3.5-5.1.7-.4,1.1-.9.6-1.9-.1-.2.2-1,.5-1.2,1.6-1,3.4-1.4,5.2-.6,2.4,1.1,4.8,2.1,7.2,3.3,3.2,1.5,6.5,3.1,9.7,4.6.1,0,.2.1.3.2,2.4,1.2,2.5,1.4,1.2,3.7-.7,1.1-1.1,2.4-1.7,3.5-.8,1.2-1.6,2.5-2.6,3.5-.6.6-1.7.8-2.5,1.2,0-.1,0-.2,0-.4h0ZM91.6,143.5c1.1-1,1.1-1,.2-1.7-.3.3-.6.6-.9,1,.2.3.4.5.7.7h0Z" inkscape:connector-curvature="0"/>
      <path id="path10" class="st0" d="M135.7,152.5c-2.3-.3-4.2-.9-5.8-2.6-1-1-2-1.9-3.1-2.9-.5-.5-.7-.9,0-1.5.4-.4.5-1,.6-1.5.2-1.1.9-1.5,2-1.4.6,0,1.2-.1,1.7-.4,4.5-2,8.3-5.2,13.1-6.8,1.2-.4,2.1-.4,3.2.3,2.3,1.6,3.9,5,3.4,7.1-.5,1.9-1.6,3.2-3.5,3.9-.6.2-1.1.5-1.6.8-1.7,1.1-3.4,2.3-5.2,3.2-1.5.7-3.2,1.1-4.8,1.6h0Z" inkscape:connector-curvature="0"/>
      <path id="path12" class="st0" d="M115,171.3c-.2-1-.6-1.8-.6-2.6,0-2,0-4,0-6,0-2.4,1-4.5,2.3-6.6.4-.6.4-1.5.6-2.3.2-.5.4-1.1.7-1.3,1-.4,2-.7,3.1-.8,1.5-.2,2.6.6,3.2,2,.4.9,1,1.7,1.4,2.6.5,1.1,1.2,2.2,1.4,3.4.4,3.3.6,6.7.8,10,0,1-.1,1.9-1.4,1.9,0,0,0,0-.1,0-1.5,1.6-2.5.4-3.7-.6-1.9-1.7-3.9-1.9-6.2-.6-.4.2-.8.5-1.6.9h0ZM120.3,162c.8-.4,1.5-2,1.2-2.6,0-.2-.3-.4-.5-.4-.2,0-.5.2-.6.3-.4.9-.7,1.8-.2,2.7ZM117.3,165.7c-.2,0-.3,0-.5,0,0,.8,0,1.6,0,2.4.3,0,.7,0,.8-.2.5-.8.5-1.5-.2-2.2Z" inkscape:connector-curvature="0"/>
    </g>
  </g>
</svg>