<?xml version="1.0" encoding="UTF-8"?>
<svg id="svg6" xmlns="http://www.w3.org/2000/svg" xmlns:svg="http://www.w3.org/2000/svg" xmlns:sodipodi="http://sodipodi.sourceforge.net/DTD/sodipodi-0.dtd" xmlns:rdf="http://www.w3.org/1999/02/22-rdf-syntax-ns#" xmlns:inkscape="http://www.inkscape.org/namespaces/inkscape" xmlns:dc="http://purl.org/dc/elements/1.1/" xmlns:cc="http://creativecommons.org/ns#" version="1.1" viewBox="0 0 215 215">
  <!-- Generator: Adobe Illustrator 29.3.1, SVG Export Plug-In . SVG Version: 2.1.0 Build 151)  -->
  <defs>
    <style>
      .st0 {
        fill: #fff;
      }
    </style>
  </defs>
  <sodipodi:namedview id="namedview8" bordercolor="#666666" borderopacity="1" fit-margin-bottom="0" fit-margin-left="0" fit-margin-right="0" fit-margin-top="0" gridtolerance="10" guidetolerance="10" inkscape:current-layer="svg6" inkscape:cx="-394.0031" inkscape:cy="161.68255" inkscape:pageopacity="0" inkscape:pageshadow="2" inkscape:window-height="1017" inkscape:window-maximized="1" inkscape:window-width="1920" inkscape:window-x="-8" inkscape:window-y="-8" inkscape:zoom="1.3037281" objecttolerance="10" pagecolor="#ffffff" showgrid="false"/>
  <path id="path4" class="st0" d="M33.7,213.6c-.6-.9-.7-1.7-.4-2.4,0-.4.3-1.1.9-1.9l.2-.2c1-1.7,2.7-4.2,5.2-7.5,1.6-2,2.7-3.5,3.4-4.5l.9-1.1c3.2-4.2,5.5-7.3,6.9-9.5,2.4-3.6,4.3-6.9,5.5-10,1.2-3.1,3.5-7.1,6.8-11.9l2.4-3.4c1.6-2,3.2-5.5,4.7-10.3l2.2-6.5c.9-2.3.9-4.5.2-6.7-.7-2.2-2.1-3.9-4.1-5.2-.7-.4-1.4-.8-2.2-1.1-1.4-.9-2.2-1.7-2.4-2.4-.1-.7.1-1.7.9-3,1.3-2.7,2.2-4.4,2.8-5,.9-.9,1.8-1.2,2.8-1.1.9.3,2.7,1.1,5.4,2.4,3.4,1.6,6,3.2,7.7,4.7l-.6,1.1c-.6.6-.9,1.1-.9,1.7s.3,1,.9,1.4c.6.4,1,.5,1.4.4.4,0,.8-.4,1.2-1l.4-.4c2-2.4,4.3-6.4,6.9-11.8,1.3-2.6,2.3-4.6,3.1-5.9.8-1.4,1.9-3.6,3.3-6.6l1.7-3.9c1-1.9,1.2-3.4.6-4.7-.3-.4-.5-1.2-.6-2.3-.1-1.1-.4-1.8-.6-2.3-.3-.7-.9-1.2-1.7-1.5-2.6-1-5.7-1.1-9.3-.4-2.6.9-5,1.4-7.1,1.7-1,.1-1.8.1-2.4,0-.6-.1-1-.5-1.4-1.1-.4-.6-.4-1.2-.2-1.9.2-.7.6-1.3,1.2-1.7l5.2-5.2c4-4.2,7.1-7.1,9.3-8.8,1.6-1.1,3.8-3,6.7-5.6l3-2.8c2-1.7,5-4.2,8.8-7.5,4.7-4,8.2-7.1,10.4-9.3,2.2-2.2,5.6-5.1,10-8.8,4.4-3.7,7.7-6.6,9.7-8.6,5.5-5.5,13.7-12.1,24.8-19.8,1.9-1.3,4.6-3.5,8.2-6.7l1.9-1.7c.7-1,1.5-1.7,2.4-2.2.1-.4.4-.7.8-.9.4-.1.8,0,1.2.2.4.3.5.8.2,1.5-.1,3-.9,7.5-2.4,13.3l-6.9,28.2c-2.3,9.8-4.2,17-5.8,21.7-.4,1.1-1,3-1.6,5.5-.6,2.5-1.3,4.4-1.8,5.7-1,2.9-2.3,7.2-3.9,13.1-1.6,5.9-2.9,10.3-4.1,13.1-2.4,6-4.2,12.8-5.4,20.2-.1,1.1-.6,2.9-1.3,5.4-.6,2-.9,3.5-1.1,4.4-.1.9-.4,1.5-.9,1.6-.4.1-1-.1-1.7-.9-3.4-3.2-5.6-6.2-6.5-9-.6-1.9-1.9-4.4-3.9-7.5l-.4-.9c-1-2.3-2.7-2.8-5-1.5l-2.8,1.7c-4,2.4-7.1,4.4-9.4,5.8-2.2,1.4-3.7,3.2-4.4,5.2-.4,1.7-1.5,4.2-3.2,7.3-.7,1.1-1,2.2-.8,3,.2.9.9,1.7,2,2.6,7.5,4.9,13.1,8.6,16.8,11.2,1.1.9,1.7,1.5,1.7,2s-.5,1.1-1.5,1.8c-1.4.9-3.1,2.5-5,5-1,1.3-1.8,2.2-2.4,2.8-1,.1-1.5,0-1.5-.6-1.9-5.6-5.7-7.9-11.6-6.9-3.3.6-7.1,1.9-11.4,3.9-3.4,1.7-6,4.1-7.7,7.1-1.1,1.7-2.9,4.2-5.2,7.3-2.2,2.6-3.7,4.6-4.5,6l-1.3,2.2c-3.7,5.9-6.5,10.3-8.2,13.1-2.9,5-5.2,9.7-6.9,14-.4,1.1-1,2.1-1.7,2.8-1.3,1.4-2.5,2-3.6,1.8-1.1-.2-2.2-1.2-3.3-2.9l-.9-1.1c0-.1,0-.2-.2-.2l-.4-.2c-.9.4-1.9,1.4-3.2,2.8-.7.9-1.3,1.4-1.7,1.7l-.6.6c-.4.4-.8.7-1.1.8s-.6,0-1-.3c-.4-.3-.5-.6-.4-1.1,0-.4.3-1,.5-1.7v-.2c.7-1.6,1-2.8.8-3.7-.2-.9-.9-1.7-2-2.6-1.4-1.3-2.7-1.2-3.7.3-1,1.5-1.7,2.7-2,3.6-.4.9-.8,1.7-1.4,2.4-.4.4-1.1,1-2.2,1.7l-.2.2ZM118.2,93.3h0v4.7c0,.6.2,1,.5,1.2.4.2.8.3,1.4.1.6-.1,1.5-.5,2.9-1.2,1.4-.6,2.4-1.1,3.1-1.4,2.7-.9,4.4-2.7,5.2-5.6.4-1.9,1.5-4.6,3.2-8.2l.9-1.7.9-2.2c1.1-2.7,1.9-4.8,2.2-6.2.9-3,2-5.6,3.4-7.7l3.2-5.4c2.9-5,5.2-8.6,7.1-10.8.7-.4,1.2-1.4,1.5-2.8.6-1.1.4-2-.4-2.6-.4-.1-.8-.1-1.2.1-.4.2-.6.5-.8.8l-2.4,2.6c-3.9,3.9-6.6,7-8.2,9.3-5,6.9-12,15.5-20.9,25.8-1,1.3-1.6,2.2-1.7,2.8-.4,1.1-.4,2.3,0,3.4.1.9.1,2,0,3.4v1.5ZM86.4,143.2c0,1.4.5,2.7,1.4,3.8.9,1.1,1.9,1.5,2.9,1.2,2.6-.7,4.2-2.1,4.7-4.1.9-2.3.4-4.3-1.3-6-.4-.4-.9-.8-1.3-1-.4-.2-1-.3-1.7-.1-1.1.4-2.2,1.3-3.2,2.6-1,1.3-1.5,2.5-1.5,3.7h0ZM124.7,153.1c0-.9-.3-1.3-.8-1.3s-.8.4-.8,1.1,0,.6.2.9.4.4.6.2l.6-.9ZM92.4,129.4v-.2h-.4c-.1.1-.2.3-.2.3s.1.1.4.1c-.1-.1,0-.2.2-.2Z" inkscape:connector-curvature="0"/>
</svg>