<?xml version="1.0" encoding="UTF-8"?>
<svg id="svg6" xmlns="http://www.w3.org/2000/svg" xmlns:svg="http://www.w3.org/2000/svg" xmlns:sodipodi="http://sodipodi.sourceforge.net/DTD/sodipodi-0.dtd" xmlns:rdf="http://www.w3.org/1999/02/22-rdf-syntax-ns#" xmlns:inkscape="http://www.inkscape.org/namespaces/inkscape" xmlns:dc="http://purl.org/dc/elements/1.1/" xmlns:cc="http://creativecommons.org/ns#" version="1.1" viewBox="0 0 215 215">
  <!-- Generator: Adobe Illustrator 29.3.1, SVG Export Plug-In . SVG Version: 2.1.0 Build 151)  -->
  <defs>
    <style>
      .st0 {
        fill: #fff;
      }
    </style>
  </defs>
  <sodipodi:namedview id="namedview8" bordercolor="#666666" borderopacity="1" fit-margin-bottom="0" fit-margin-left="0" fit-margin-right="0" fit-margin-top="0" gridtolerance="10" guidetolerance="10" inkscape:current-layer="svg6" inkscape:cx="-216.30301" inkscape:cy="93.39375" inkscape:pageopacity="0" inkscape:pageshadow="2" inkscape:window-height="1017" inkscape:window-maximized="1" inkscape:window-width="1920" inkscape:window-x="-8" inkscape:window-y="-8" inkscape:zoom="1.84375" objecttolerance="10" pagecolor="#ffffff" showgrid="false"/>
  <path id="path4" class="st0" d="M206.9,43.8c-.1-.4-.4-1-.6-1.7-1.7-4.7-3.4-8.2-4.9-10.3-8.6-10.2-18.8-17.5-30.5-22.1l-4.9-1.5c-3-1-5.2-1.8-6.7-2.4-2.4-1-4.5-2.1-6.2-3.4-.7-.6-1.8-1.1-3.2-1.5l-1.7-.4c-1.9-.6-3.1-.6-3.9-.1s-.8,1.8-.3,3.8c.5,2,.5,3.6-.1,4.8-.6,1.2-1.8,2-3.6,2.5-6,1.1-10.5,1.8-13.5,1.9-5.2.1-12.8,0-23-.2l-9-.2c-3.4,0-6,0-7.7-.2-2.7-.3-5.2-.8-7.5-1.5-1.6-.4-2.8-1.1-3.5-1.9-.8-.9-1.2-2.1-1.2-3.6s-.5-2.6-1.5-3.2c-1-.6-2.4-.6-4.1,0-1,.1-2.4.6-4.3,1.3l-1.1.4c-2.1.7-5.2,2.1-9.2,4.3-3.6,2-6.3,3.4-8.2,4.1-5.4,1.9-9.4,3.9-12,6.2-3.9,3.1-7.6,7.2-11.2,12-2,2.9-4.9,7.4-8.6,13.7-2.6,4.2-4.5,7.2-5.8,9.2-.9,1.1-1.1,2.3-.6,3.3.4,1.1,1.6,1.4,3.4,1,1.3-.3,2.1-.2,2.6.2.4.4.6,1.2.6,2.4,0,18.2,2.5,34.8,7.5,49.8,2.3,7.4,4.4,13.5,6.4,18.2,2.7,6.4,5.8,12.1,9.2,17,1.4,2.3,2.9,3.9,4.3,4.7.6.4,1.2.7,1.8.8.6,0,1.3,0,1.9-.4.6-.4,1-.8,1-1.3s-.1-1.1-.4-1.8l-.2-.4c-.6-2.4-.9-5.2-.9-8.4v-3.2c.3-8.7.8-15.4,1.5-20l.9-4.7c2.4-12.7,4.6-22.3,6.4-28.6.6-1.9,1.6-4.7,3-8.4,1.6-4.3,2.7-7.5,3.4-9.7,1.1-3.7,1.8-7.2,1.9-10.3.1-1.7.2-4.2.2-7.5,0-2.1.9-3.3,2.8-3.4.9-.1,1.4,0,1.7.4.3.4.5,1.1.6,1.9l.2.6c1.1,3.9,1.6,7.9,1.3,12.2-.1,3.7.5,7.7,1.9,11.8.9,2.6,2.5,6.3,4.9,11.2,1.1,2.4,2.9,3.4,5.2,3,1-.1,1.7-.6,2.1-1.3.3-.4.6-1.2.9-2.4l1.1-5.2c.9-3.6,1.5-6.2,1.9-7.9.9-2.9,1.9-5.4,3.2-7.5.3-.6.6-1.6.9-3.1.3-1.5.6-2.5.9-3.1.4-1,1.2-1.5,2.3-1.5,1.1,0,1.9.4,2.5,1.3.4.4.9,1.3,1.3,2.7.4,1.4.8,2.3,1.1,2.9l.4.6c.4,1,.9,1.7,1.3,2.1.7.7,1.6,1,2.6,1,1,0,2-.4,2.9-1.1.9-.6,1.6-1.4,2.1-2.4.5-.9,1-2.4,1.6-4.4v-.2c.4-1.3.9-2.2,1.3-2.8.6-.9,1.4-1.2,2.4-1.1,1,.1,1.6.6,1.9,1.5.3.4.5,1.3.6,2.6v.6c.1.7.1,1.9,0,3.4v5.2c0,4.9,0,8.6.2,11.1.1,2.5.8,4.2,2,5.2,1.2.9,3.2,1.4,5.9,1.4s3.2-.6,4.5-1.7c.7-.7,1.6-1.9,2.6-3.6,1.3-2.1,3.3-5.2,6-9,4.7-7,7.9-12.5,9.7-16.3.7-1.4,1.5-2.4,2.5-2.8.9-.4,1.8.1,2.7,1.7,1.6,2.7,2.7,5.1,3.4,7.1.9,2.7,1.4,5.4,1.5,8.1.1,2.6.3,6.8.4,12.3.1,5.6.3,9.8.4,12.7.1,4.4,0,9.4-.2,14.8l-1.3,14.8c-.9,7.3-1.4,12.7-1.5,16.3l-.2,1.7c-.3,1.4-.4,2.4-.2,3,0,.9.4,1.6,1.3,2.1,1.1.7,2.3.9,3.4.4.7-.1,1.7-.7,3-1.7l.6-.6c.9-.6,1.9-1.7,3-3.4,2.1-2.9,4.7-7.5,7.6-14,2.9-6.4,5.5-11.2,7.6-14.3,2.1-3.1,4.2-6.8,6.2-11.3,1.4-3,3.1-7.1,4.9-12.2l.2-.9c.4-1.1,1.1-3.5,1.9-7.1l1.5-6.7c1.1-4.4,1.7-10.3,1.7-17.6s.4-3.8,1.3-4.8c.9-1.1,2.4-1.5,4.5-1.4,1.1,0,2-.3,2.6-.9.6-.6.6-1.5.2-2.8h0ZM180.9,106.1c-.1.1-.4.3-.9.3h-.6c-.3-.8-.4-1.4-.4-1.8.1-1.3.6-2.6,1.3-4.1.4-.9,1.1-2,2-3.5s1.6-2.6,2-3.3c.1-.3.4-.5.6-.6s.5-.1.8.1.4.5.5.8l.4.9c-2,4.2-3.9,7.9-5.8,11.4h0ZM193.6,75.8l-1.7,5.4c-.1.4-.4,1.1-.6,2.1-.4,1.6-1,2.7-1.7,3.4l-.4.6c-.3.4-.6.7-.9.9-.3.1-.6.1-1.1,0-.9-.4-1-1.3-.4-2.6l2.8-8.4c.4-1.9,1.5-2.7,3.2-2.6h.4c.3.3.4.6.4.9v.2ZM194.2,172.6c0-.1,0-.4-.2-.9l-.2-.6-.6-1.3c-2.6-5.3-4.4-9.3-5.6-12-1.7-4.6-2.8-8.9-3.2-12.9,0-.4-.1-.9-.4-1.5-.4-1-1.2-1.5-2.4-1.5-.9.1-1.3.8-1.3,1.9-.3,4.3-1.1,8.8-2.6,13.5-1.1,3.4-2.8,7.7-4.9,12.9-1.4,3.1-2.8,5.3-4.2,6.5-1.4,1.2-3.2,1.8-5.6,1.8s-4.3-.6-5.7-1.8-2.6-3.4-3.6-6.5c-1.6-5-3.6-12.5-6.2-22.3l-2.4-9.4c-1.4-6.6-2.7-11.5-3.9-14.6-1.7-5.4-3.9-10.1-6.4-14-.3-.3-.6-.8-.9-1.6-.3-.8-.6-1.4-.9-1.7s-.8-.5-1.5-.3c-.7.1-1.2.5-1.4,1.1-.2.6-.3,1.4-.1,2.6v1.1c0,2,.1,5,.3,9.1.2,4.1.3,7.2.3,9.3-.1,3.1-.4,7.8-.6,14-.4,6.7-.7,11.7-.9,15-.1,5.6,0,10.6.4,15,.6,2.4-.1,3.9-2.1,4.3-.9.1-1.5,0-1.8-.4-.4-.4-.6-1.1-.8-2.1l-.2-1.1c-.4-1.9-.9-4.6-1.3-8.2l-.6-4.5c-.1-1.1-.4-2-.6-2.6-.3-.6-.9-.9-1.9-1.1-1-.1-1.8.2-2.4,1.1-.3.4-.6,1.3-.9,2.6-.4,1.9-1.2,3.2-2.4,4.1-1.1.9-2.7,1.4-4.7,1.7-1.7.3-3.1,0-4.3-.9-.7-.7-1.5-1.9-2.4-3.4l-.2-.4c-.6-1.1-1.1-1.9-1.5-2.4-.7-.7-1.6-1.1-2.7-1.1s-2,.4-2.7,1.1c-.4.6-.9,1.5-1.5,2.8l-.2.2c-.6,1.1-1.3,3-2.3,5.5-.9,2.5-1.7,4.3-2.3,5.5-1,2.3-2.5,3.4-4.5,3.2-1-.1-1.8-.5-2.4-1.2-.6-.6-1.1-1.5-1.5-2.7-1.6-5.7-2.2-12.9-1.9-21.5v-3.2c.1-5.3.2-9.3.2-12,0-4.4-.3-8.4-.9-12-.7-4-.6-7.8.4-11.4l.2-.4c.4-1.6.6-2.7.6-3.4,0-1.4-.5-2.3-1.5-2.6-1-.3-1.9-.1-2.6.4-.4.3-1,.9-1.6,1.9s-1.1,1.6-1.4,1.9c-.3.3-.4.6-.4.9-1.6,3.9-4.2,9.7-7.7,17.4-3.6,7.9-6.2,13.9-7.7,18-2.7,6.7-4.6,13-5.6,18.9-.4,2.9-1.6,5.7-3.5,8.6-1.9,2.9-3.9,4.3-5.8,4.3s-3.8-1.4-5.5-4.3c-1.4-2.3-2.8-6-4.1-11.2l-1.1-3.9c-.3-1-.6-2.5-.9-4.5-.6-2.9-1.1-5-1.5-6.4-.9-2.1-2.1-3.9-3.6-5.3s-2.8-2-3.5-1.8c-.8.1-1.7,1.1-2.7,3-1.3,2.4-2.8,6.3-4.5,11.6-1.1,4-2.1,6.9-3,8.8-1.3,3.6-1.4,7.1-.4,10.5.6,2.1,2.1,5.1,4.5,8.8,1.1,2,2.6,3.9,4.5,5.8,1.1,1.1,3,2.7,5.6,4.7,3.1,2.6,5.4,4.6,6.9,6,4.3,4.7,8.7,8.4,13.1,11.2,1.7,1.1,3.3,1.7,4.6,1.6,1.4,0,2.9-.8,4.6-2,3-2.9,5.7-5.1,8.2-6.7,3.1-2.1,6.2-3.6,9.2-4.5,6.7-2,12.7-3.4,18-4.3,6.4-1,12.7-1.3,18.7-.9,6,.4,11,1.6,15,3.4,4.7,2.1,8.7,5.5,11.8,10.1,1.6,2.6,2.9,4.3,4,5,1.1.8,2.2,1,3.3.6,1.1-.4,3-1.3,5.6-2.9,1.7-1.1,4.4-2.4,8.2-3.9,3-1.1,5.2-2.1,6.7-2.8,9-5.3,18-11.6,27.1-18.9,2.7-2.1,4.8-4.9,6.2-8.4.4-.9.5-1.5.3-1.9-.2-.4-.8-1-1.7-1.6-.9-.6-1.5-1.3-1.6-1.8h0ZM43.3,184c-.4.1-.8.1-1.1-.1s-.4-.4-.3-.6c0-.2.3-.4.5-.6.3-.2.5-.3.6-.3s.4,0,.9.2l1.1.6-1.7.9Z" inkscape:connector-curvature="0"/>
</svg>