<?xml version="1.0" encoding="UTF-8"?>
<svg id="svg6" xmlns="http://www.w3.org/2000/svg" xmlns:svg="http://www.w3.org/2000/svg" xmlns:sodipodi="http://sodipodi.sourceforge.net/DTD/sodipodi-0.dtd" xmlns:rdf="http://www.w3.org/1999/02/22-rdf-syntax-ns#" xmlns:inkscape="http://www.inkscape.org/namespaces/inkscape" xmlns:dc="http://purl.org/dc/elements/1.1/" xmlns:cc="http://creativecommons.org/ns#" version="1.1" viewBox="0 0 215 215">
  <!-- Generator: Adobe Illustrator 29.3.1, SVG Export Plug-In . SVG Version: 2.1.0 Build 151)  -->
  <defs>
    <style>
      .st0 {
        fill: #fff;
      }
    </style>
  </defs>
  <sodipodi:namedview id="namedview8" bordercolor="#666666" borderopacity="1" fit-margin-bottom="0" fit-margin-left="0" fit-margin-right="0" fit-margin-top="0" gridtolerance="10" guidetolerance="10" inkscape:current-layer="svg6" inkscape:cx="-208.84967" inkscape:cy="131.7576" inkscape:pageopacity="0" inkscape:pageshadow="2" inkscape:window-height="1017" inkscape:window-maximized="1" inkscape:window-width="1920" inkscape:window-x="-8" inkscape:window-y="-8" inkscape:zoom="1.84375" objecttolerance="10" pagecolor="#ffffff" showgrid="false"/>
  <path id="path4" class="st0" d="M86.4,75.9c.9-.9,2.2-1.6,4.1-2.2l1.7-.6c1.3-.3,2.1-1,2.4-2,.3-1.1-.3-2-1.7-2.9l-2.8-1.9c-7.2-5-12.7-8.5-16.7-10.6s-7.1-4.1-9.6-6.2c.4-1,1.3-1.4,2.6-1.1,5.9.6,14.6.7,26.1.4h9.9c2,0,3.2-1.1,3.7-3.2,1-3,1.8-6.5,2.4-10.6.3-2.3.7-5.8,1.3-10.6l.2-2.6c.6-3.2,1.3-8,2.2-14.6.3-.9.9-2.2,1.7-3.9l.9-1.3.6,1.1c1.7,3.3,2.7,5.8,3,7.5.9,4,2.9,9.1,6,15.3.9,1.7,2,4.2,3.4,7.3.6,1,1.1,1.6,1.7,1.8.6.2,1.4,0,2.4-.5l.2-.2c.3-.1.4-.3.4-.4,1.6-1.6,4.2-3.7,8-6.5,2.7-2.2,4.8-3.8,6.2-5,2.2-2,4-4,5.6-6,.9-1.3,2.4-2.9,4.7-5l.9-.9c4.7-4.5,8.3-7.8,10.8-9.9.7-.7,1.3-.9,1.7-.4.3.1.4.6.4,1.5-.7,1.3-1.5,3.3-2.4,6-1.1,3.4-2.2,5.9-3.2,7.3-3.7,6.3-6.8,13.3-9,20.9l-3.2,10.1c-1.3,4,.1,6,4.3,6h19.6c1.1,0,2.8-.3,5-.9l2.8-.6c1.9-.1,3.3,0,4.4.4,1.1.4,2.2,1.3,3.3,2.6-1.4.9-3.5,2.2-6.2,3.9-3,2-5.4,3.4-7.1,4.3-7.3,3.3-14.1,7-20.5,11-2,1.1-2.4,2.9-1.3,5.4l5.6,9.5c2.3,4.5,4.7,8.5,7.1,12.1.6,1,.9,2.1.9,3.2s-.1,1.7-.4,3c-.3,1.3-.4,2.2-.4,2.7s-.3.8-.8.9-1,0-1.6-.3l-3-1.5c-3-1.3-5.1-2.5-6.2-3.7-2.3-2.2-6.1-4.8-11.4-8-3.2-1.9-5.5-3.4-7.1-4.5-.6-.6-1.2-.9-1.9-.9-1.3-.4-2.3-.4-2.9.1-.6.5-.8,1.4-.3,2.7.3.9.6,2.2.9,3.9l.6,3c.4,1.1.4,1.9-.2,2.4l-.6.6c-1.3,1.4-2.3,2.3-3.1,2.6-.8.3-1.4,0-1.8-.9l-.2-.2c-.9-1.6-2.8-3.4-5.8-5.6l-.6-.4c-1.3-.7-2.3-1-3.1-.9-.8.1-1.7.8-2.7,1.9-2.4,3.3-5.8,8.4-10.1,15.3l-3,5c-.6.7-.8,1.7-.6,2.8,0,.7.2,1.8.6,3.2.6,2.2.7,3.5.3,4.1s-1.5,1.3-3.6,2.2l-2.8,1.3c-2.9,1.3-4.9,2.4-6,3.2-2,1.6-3.4,3.5-4.1,5.8-.3,1.1-1.2,2.7-2.8,4.5l-.6.6c-3.4,4.5-7.6,10.8-12.5,19.2-.6,1-1.6,2.4-3,4.3-2,2.6-3.4,4.6-4.1,6-1.1,2.4-3.3,6-6.5,10.6-2.2,3-3.7,5.3-4.7,6.9-2.4,4-6.5,9.9-12.3,17.7l-.4.9c-.4.6-.8,1-1.1,1.3s-.7.3-1.2-.1c-.5-.4-.7-.7-.5-1.1.1-.4.5-.8,1.1-1.4l.6-.9c1.1-1.7,2.8-4.2,5-7.5l3-4.3c.3-.3.4-.5.4-.6l.2-.6c.3-.6.5-1.1.5-1.5,0-.4-.2-.9-.8-1.3-.6-.4-1-.5-1.4-.3-.4.2-.8.7-1.4,1.4l-.2.2c-1,1-2,1.7-3,2.2-2,.4-3.8,1.5-5.4,3.2-.4,1-1.2,1.3-2.4.9-.6-.3-.9-.9-.9-1.9v-.4l3-10.3c.6-1.3.5-2.2-.2-2.6-1.1-.4-2.1,0-2.8,1.3,0,.3-.2.6-.6,1.1-.6.9-1.3,1.2-2.2,1-.9-.2-1.7-.1-2.6.3-.6.1-1.3.5-2.2,1.1l-1.3.9c-1,.7-1.8.8-2.4.2-.4-.3-.6-.6-.5-1.1s.3-.9.8-1.3c1.1-1.3,2.6-3.4,4.3-6.5,1.3-2.4,2.3-4.2,3-5.2,1.4-1.9,2.9-3.4,4.5-4.5,1.3-.9,2.9-2.8,4.7-5.8l1.1-1.7c1.9-3.2,5-7.8,9.5-14,3.3-4.7,5.7-8.3,7.3-10.8,4-6.3,7.1-10.8,9.3-13.6,2.7-3.9,2.9-7.8.6-11.8-.4-.9-.5-1.5-.3-2s.7-1.1,1.4-1.8c1-.9,2.7-1.3,5.2-1.3,3.6,0,6.8-1.6,9.5-4.7,4.3-5.7,7.7-11.1,10.1-15.9.6-1.1,1.3-3.1,2.2-5.8l.2-.6c.1-1-.1-1.9-.9-2.6-2.2-2.6-4.5-4.4-7.1-5.4-.1,0-.4-.1-.9-.4l-.6-.6ZM93.1,106.2c-1.9-.3-3.1.3-3.7,1.7-.1.4-.5.8-1.1,1.1l-.6.6c-1.1,1.1-1.8,2-1.9,2.6-.1.6.2,1.6,1.1,3,.1.4.6,1.1,1.3,1.9l.9.9c.7.9,1.7,1.4,2.8,1.7.7.1,1.7.3,3,.4h1.5c.7,0,1.2-.4,1.5-1.1.3-.4.6-1.3.9-2.6l.4-1.3c.7-1.3.7-2.8,0-4.5-.6-2.9-2.6-4.4-6-4.5ZM98.1,101.1c0-1-.6-1.5-1.7-1.5-.7,0-1.3,0-1.6.2-.4.1-.5.6-.3,1.3.1,1.1.9,1.7,2.2,1.5.4,0,.8-.1,1.1-.4.3-.3.4-.6.4-1.1ZM113.6,42.5c-.1-.6-.3-.9-.4-1.1-.1-.1-.4-.1-.9,0-1.3.3-1.9,1.1-1.9,2.4s.5,1.3,1.5,1.3c1.1-.4,1.7-1.3,1.7-2.6Z" inkscape:connector-curvature="0"/>
</svg>