<?xml version="1.0" encoding="UTF-8"?>
<svg id="svg6" xmlns="http://www.w3.org/2000/svg" xmlns:svg="http://www.w3.org/2000/svg" xmlns:sodipodi="http://sodipodi.sourceforge.net/DTD/sodipodi-0.dtd" xmlns:rdf="http://www.w3.org/1999/02/22-rdf-syntax-ns#" xmlns:inkscape="http://www.inkscape.org/namespaces/inkscape" xmlns:dc="http://purl.org/dc/elements/1.1/" xmlns:cc="http://creativecommons.org/ns#" version="1.1" viewBox="0 0 215 215">
  <!-- Generator: Adobe Illustrator 29.3.1, SVG Export Plug-In . SVG Version: 2.1.0 Build 151)  -->
  <defs>
    <style>
      .st0 {
        fill: #fff;
      }
    </style>
  </defs>
  <sodipodi:namedview id="namedview8" bordercolor="#666666" borderopacity="1" fit-margin-bottom="0" fit-margin-left="0" fit-margin-right="0" fit-margin-top="0" gridtolerance="10" guidetolerance="10" inkscape:current-layer="svg6" inkscape:cx="-302.54302" inkscape:cy="94.016706" inkscape:pageopacity="0" inkscape:pageshadow="2" inkscape:window-height="1017" inkscape:window-maximized="1" inkscape:window-width="1920" inkscape:window-x="-8" inkscape:window-y="-8" inkscape:zoom="1.3037282" objecttolerance="10" pagecolor="#ffffff" showgrid="false"/>
  <path id="path4" class="st0" d="M209.3,0c-1.1,2.4-2.7,6.2-4.7,11.2-2.6,6.6-4.7,11.4-6.5,14.4-4.9,8-8.7,16.2-11.4,24.5l-.4,1.1c-.3,1-.6,1.8-.9,2.3-.3.5-.9.8-1.8.8s-1.5-.2-1.8-.6-.4-1.1-.4-2.2l-.2-1.3c-.4-3.4-2.3-4.1-5.6-1.9-1.7,1.1-3.5,2.7-5.4,4.5-1.1,1.1-2.8,2.9-4.9,5.4l-11.8,13.3c-6.9,7.5-12.1,13.1-15.7,16.8-2.3,2.4-5.5,6.2-9.5,11.4-4.7,5.9-8.5,10.2-11.2,12.9-10.5,10.5-22,24.6-34.6,42.4-2,2.7-3,5.7-3,9,.1,1.7.1,4.4,0,8l-.2,5.4c0,2.4-.8,4.2-2.4,5.2-2.7,1.9-5.3,4.2-7.7,7.1-1.6,1.9-3.7,4.7-6.5,8.4-2,2.9-3.6,4.9-4.7,6.2l-2.8,3c-2.6,2.7-4.4,4.9-5.4,6.5-.3.4-.7.8-1.2,1.1-.5.3-1,.3-1.4,0-1-.3-1.4-1.4-1.1-3.2.4-3.7,1.1-7.4,1.9-11,.3-1.6.4-4,.4-7.3,0-2.4-1-3.9-3-4.5l-.4-.2c-.4-.1-.7-.3-.9-.4-3.2-3.2-6.9-4.7-11.2-4.7-2.6.1-6.5,1-11.6,2.6l-2.6.6c-1,.1-1.8.1-2.4,0-.7,0-1.3-.3-1.6-1-.4-.6-.4-1.2-.2-1.7.2-.5.6-1.1,1.2-1.8l.2-.2c3.7-4,8-8,12.9-11.8,1.7-1.3,3.7-1.5,6-.6,1.3.4,2.4.6,3.3.6s1.9-.3,2.8-.9c.9-.6,1.7-1.1,2.3-1.7.6-.6.9-1.4.9-2.4,0-1.6-1-2.5-3-2.8-1.1-.3-1.8-.8-1.8-1.5,0-.7.3-1.5,1-2.4l7.1-8c1.9-2,4.4-2.5,7.6-1.6,3.2.9,6.2.7,8.9-.8,1.6-1,3.7-2.9,6.5-5.8l.4-.6c15.3-17.8,29-32.5,40.9-44.1,4.2-4,10.1-10.3,17.9-18.7l6.7-7.3c3.7-4.3,6.7-7.3,9-9,2.3-1.7,3.7-3.4,4.1-5.1.4-1.6,1.3-3.3,2.6-4.8.9-.9,2.2-2,4.1-3.4,3.6-2.9,6.3-5.8,8.2-8.8,1-1.6,1.3-2.8,1-3.7-.4-.9-1.4-1.6-3.1-2.2l-.6-.2c-.7-.1-1.3-.3-1.7-.4-1.3-.6-2-1.3-2-2.3,0-.9.5-1.8,1.6-2.5,2.2-1.3,5.5-3.2,9.9-5.6l4.9-2.8c4.7-2.4,10-5.5,15.7-9.3,3.4-2.3,8.5-5.8,15.3-10.5.4,0,1.1-.2,1.9-.5.9-.4,1.6-.5,2.4-.3h0ZM155.5,55.8v-.9l-.9.2v.2c0,.3,0,.5.2.5s.3,0,.4-.1h.2ZM202,8.5h-.2l-.2.2.4.4.2-.2c0-.3,0-.4-.2-.4ZM139.2,97.7c1.3-1.4,3.1-3.6,5.4-6.6,2.3-2.9,4.1-5.1,5.4-6.3,2-2.3,4-4.2,5.9-5.7s3.6-1.9,5.1-1.2c4.3,1.9,8.5,2.4,12.5,1.5,3.6-.9,7.2-2.9,10.8-6.2,1.1-1,2-1.5,2.6-1.5s.9.9,1.1,2.6c0,1,.4,1.7,1.3,2.2,7.2,4.9,12.6,12.1,16.4,21.6,3.7,9.5,4.4,19.8,2.2,30.7-2.7,11.8-6,21.7-9.9,29.9-2.6,5.7-4,11-4.3,15.7-.4,5.7.6,11.2,3.1,16.2s6.7,8.3,12.6,9.6c2.2,0,3.4.7,3.7,2.2.1.7,0,1.3-.4,1.7s-1,.9-1.7,1.3l-.6.2c-2.7,1.7-5.2,2.7-7.3,3-2.7.3-5.5-.3-8.2-1.7l-3.9-1.9c-3.6-1.4-6.2-2.9-7.7-4.5-3-3.3-5.2-7.2-6.5-11.6-1-3.3-1.7-7.7-2.2-13.3-.3-5,.4-10.4,1.9-16.1,1-3.3,2.9-8.3,5.6-15.1l.6-1.5c3.2-7,4.4-13.6,3.7-19.6-.1-.9-.3-2.2-.4-4.1-.1-3.9-.6-6.7-1.5-8.6-.9-1.6-1.8-2.7-2.8-3.2-1-.6-2.3-.9-4-1.1-1.6-.1-4.1-.1-7.4,0l-4.9.2c-3.7,0-7.5-.6-11.4-1.9-3.2-1.1-6.7-2.8-10.5-4.9-.3-.1-.9-.4-1.9-.9l-1.9-.9ZM179.6,102c.1-.1.3-.2.4-.2l.2-.2c-.3-.3-.5-.4-.6-.4h-.4c0,.6.1.9.4.9ZM2.3,47.2v-4.1c0-.7.2-1.4.6-1.9.4-.6,1-.9,1.7-.9l.9-.2c.7-.1,1.3-.2,1.8-.1.5,0,1,.4,1.4,1l.6.6c.6.7.9,1.3,1.1,1.7,3.4,5.2,7.6,7.3,12.5,6.5,1-.1,2.2-.1,3.4,0,4.9,1.1,9.6.6,14.2-1.5,2.9-1.3,6.7-3.9,11.6-8,9.9-8.9,21.7-14.8,35.3-17.9,7.5-1.6,15-1.8,22.6-.6,6.9,1,14,3.2,21.3,6.5,1,.4,2.3,1.5,3.8,3.1,1.5,1.6,2.8,2.7,4,3.1.4.1.6.5.4,1-.1.5-.4,1-.9,1.4-.7,1.1-1.4,3-2.2,5.6-.3,1.4-.6,2.5-1,3.3-.4.8-.5,1.8-.3,3.1.1.7.4,1.9.9,3.4l.2.9c.7,1.9,1,3.5.8,4.8s-1.2,2.6-2.9,3.8c-1.7,1.1-3.7,3.4-6,6.9l-2.2,3c-3.2,3.7-5.6,6.5-7.3,8.2-2.2,2.3-3.9,2-5.2-.9-1.9-4-2.8-7.4-2.8-10.1-.3-5.9-.2-10.2.2-12.9.7-3.6-.6-5.8-3.9-6.7h-.4c-2.6-.9-4.5-1.4-5.8-1.7-2.2-.3-4.2-.2-6,.2-1.4.4-2.9.6-4.5.6-4.4-.1-8.9.8-13.3,2.8-3,1.3-6.9,3.7-11.6,7.1-3.2,2.3-6.8,4.2-11,5.8-3.2,1.1-7.2,2.3-12,3.4s-9.9,1.1-15.1-.2c-4-.9-8.7-2.7-14-5.6-1.9-1.1-3.7-2.9-5.6-5.4l-.4-.6c-1.1-1.9-2.3-3.1-3.4-3.7-.9-.3-1.4-.9-1.5-1.7-.1-.4-.1-1.1,0-2.2v-1.1ZM95.7,44c-.1-.1-.3-.3-.5-.3-.2,0-.4,0-.5,0-.1,0-.2.2-.2.3l-.2.4c.3.6.6.7,1.1.4l.4-.9Z" inkscape:connector-curvature="0"/>
</svg>