<?xml version="1.0" encoding="UTF-8"?>
<svg id="svg6" xmlns="http://www.w3.org/2000/svg" xmlns:svg="http://www.w3.org/2000/svg" xmlns:sodipodi="http://sodipodi.sourceforge.net/DTD/sodipodi-0.dtd" xmlns:rdf="http://www.w3.org/1999/02/22-rdf-syntax-ns#" xmlns:inkscape="http://www.inkscape.org/namespaces/inkscape" xmlns:dc="http://purl.org/dc/elements/1.1/" xmlns:cc="http://creativecommons.org/ns#" version="1.1" viewBox="0 0 215 215">
  <!-- Generator: Adobe Illustrator 29.3.1, SVG Export Plug-In . SVG Version: 2.1.0 Build 151)  -->
  <defs>
    <style>
      .st0 {
        fill: #fff;
      }
    </style>
  </defs>
  <sodipodi:namedview id="namedview8" bordercolor="#666666" borderopacity="1" fit-margin-bottom="0" fit-margin-left="0" fit-margin-right="0" fit-margin-top="0" gridtolerance="10" guidetolerance="10" inkscape:current-layer="svg6" inkscape:cx="-126.43222" inkscape:cy="79.186451" inkscape:pageopacity="0" inkscape:pageshadow="2" inkscape:window-height="1017" inkscape:window-maximized="1" inkscape:window-width="1920" inkscape:window-x="-8" inkscape:window-y="-8" inkscape:zoom="2.6074563" objecttolerance="10" pagecolor="#ffffff" showgrid="false"/>
  <path id="path4" class="st0" d="M129.7,202c-.9-.4-1.4-1.3-1.5-2.6v-.6c-.1-1.4-1-2.1-2.6-1.9-.6,0-1.2.2-1.9.6-2.6,1.4-4.4,2.7-5.6,3.8l-.2.4c-1.4,1.6-2.7,2.5-3.8,2.8-1.4,0-2.4,1-2.8,3-.3,1-.9,2.1-1.7,3.4l-.4.6c-1,1.7-2.2,2.6-3.6,2.8-1.4.1-2.9-.5-4.5-1.9-4-4-9.5-8.4-16.7-13.3-1.4-.7-2.8-.8-4.3-.3s-1.6,1.7-.4,3.5c.7,1,1,1.6,1,1.9,0,.3-.5,1-1.4,2.1-2.6-2.6-6.8-5.9-12.8-10l-2.8-2.1c-1.9-1.3-3.4-2.6-4.7-4.1-2.4-2.4-6.1-4.6-10.9-6.4-.6-.1-1.4-.5-2.6-1.1-2.1-1.1-3.8-1.7-5.1-1.7s-.9-.4-1.3-1.3c-.3-.6-.3-1-.1-1.4.2-.4.6-.6,1.2-.6.6,0,1.4,0,2.4.4s1.7.5,2.1.3l4.1-1.5c.9-.3,2.1-.5,3.8-.6,1.3,0,2.2,0,2.8-.2l.9-.2c1.6-.4,2.7-.8,3.4-1.2.7-.4,1.6-1.2,2.8-2.5.4-.6,1.1-1,1.9-1.3.6,0,1.1.6,1.5,1.7.3.6,1,.9,2.1,1,1.1,0,1.8-.2,1.9-.7.7-1.6,1.7-3.1,3-4.5.7-.9,1.9-2.1,3.6-3.6l4.3-4.5c2.8-2.8,4.8-5.2,5.8-7.1.1-.3.5-.7,1.1-1.2.6-.5.9-.9,1.1-1.3.1-.4.6-.7,1.3-1,.7-.3,1.1-.8,1.1-1.5,1-.4,2.1-1.4,3.2-2.8l1.3-1.9c.6-.9,1-1.4,1.3-1.7l1.1-1.3c.9-1.3,1.6-2.1,2.1-2.6.6-.4.8-.8.7-1.2,0-.4-.2-.8-.5-1.4l-.2-.4c-.1-.4-.6-.9-1.3-1.5l-.6-.6c-.3-.4-.9-1-1.8-1.7-.9-.7-1.6-1.4-2-2.1-.4-.7-1.3-1.6-2.6-2.8l-5.3-4.9c-.1-.3-.5-.6-1.1-1.1l-.4-.4c-.3-.4-.5-1.1-.7-2-.2-.9-.4-1.6-.6-2-.2-.4-.7-.8-1.5-1.1-.8-.3-1.5-1-2.2-2.1s-1.4-1.9-1.9-2.4c-.9-.6-2-1.6-3.4-3.2l-1.1-1.1c-.1-.9.3-1.6,1.3-2.4,1.3-.9,3.2-2.4,5.7-4.6,2.5-2.2,4.5-3.7,6.1-4.6.6-.4,1.4-1.1,2.4-2.1,1.3-1.6,2.4-2.5,3.4-2.8,1.6-1.7,4.2-4,8-6.9s6.4-5.3,8-7.2c.6-.7.8-1.3.7-1.8s-.4-1.1-1-1.8l-1.3-1.1c-1-.7-1.6-1.4-1.7-1.9s-.6-1.1-1.5-1.7c-.6-.1-.9-.4-1.1-.6-.6-1.1-1.7-2.6-3.5-4.4-1.8-1.8-3-3.3-3.5-4.6l-.4-1.5c-.6-1.4-1.1-2.5-1.7-3.2l-2.4-3.2c-1.9-2.4-3.3-4.1-4.3-5.1-1.7-1.9-3.5-3.3-5.3-4.5-.1-.1-.2-.4-.2-.6s.1-.6.4-.9c3.4-1.6,6-3.8,7.7-6.6.4-.7,1.2-1.6,2.4-2.6l1.5-1.5c1-1.1,1.9-1.9,2.6-2.2.7-.4,1.4-1,2.1-2l1.1-1.3c2.6-3.1,4.6-5.3,6.2-6.6,2.1-1.7,4-3.1,5.6-4.1,2.8-1.7,5.4-4.3,7.7-7.7l1.3-1.3c.7-.7,1.2-1.4,1.5-1.9.4,1,.6,2,.4,3-.1.6-.5,1.4-1.1,2.5-.6,1.1-.9,1.9-1.1,2.5-1,.7-2.1,2.1-3.4,4.3l-1.5,2.4c-1.6,2.7-3.4,5.4-5.6,8.1-1.9,3-3.2,6.4-4.1,10.3-.3,2.1-.2,4,.3,5.4.5,1.5,1.5,2.9,2.9,4.2.3.3.6.7,1.1,1.3.6,1,1.1,1.6,1.6,1.8.5.2,1.1.7,1.9,1.4.8.7,1.4,1.2,1.8,1.4.4.2,1,.7,1.6,1.5.6.8,1.2,1.2,1.8,1.4.6.1,1.2.6,1.9,1.3.7.7,1.4,1.2,1.9,1.4.6.2,1.3.8,2.1,1.7.9.9,1.6,1.5,2.1,1.6.9.3,2,1.1,3.4,2.6l.4.4c.6.6,1.5,1.1,2.8,1.7,1.3.6,2.1,1.2,2.6,1.9.3.4.8.6,1.5.4h4.1c.3,0,.5.2.6.6s.1.9,0,1.3c-.1.9-.7,1.6-1.7,2.4l-1.5,1.5c-4.3,4.6-7.3,8.1-9,10.7-.1.3-.5.7-1.1,1.3-1.3,1.1-3,3-5.1,5.6-1.9,2.3-3.3,3.9-4.3,4.9s-.7.9-1.3,1.7c-.9,1.3-1.5,2.1-2,2.4-.5.3-1.1.9-1.7,1.7-.6.9-1.2,1.4-1.8,1.7-1,.7-1.5,2-1.4,3.7,0,1.8.6,3,1.6,3.7.6.3,1.1.9,1.7,1.8s1.1,1.5,1.5,1.8c.7.4,1.6,1.3,2.8,2.6l7.7,7.7c1.3,1.3,2.1,2.4,2.6,3.2,1.3,2,2.7,3.5,4.3,4.5,1.6,1,2.4,2.5,2.5,4.4,0,1.9-.6,3.6-2,5-.3.4-.8.9-1.5,1.5l-.6.6c-.7,1-1.3,1.6-1.8,1.8-.5.2-1.1-.1-1.8-1l-.4-.4c-.3-.3-.6-.3-.9,0l-.2.6c-.4.3-.4.6,0,.9l.2.2c.6.4.9.9.9,1.4s-.2.9-.5,1.2c-.4.3-.6.6-.7.9-2,2.4-4.9,6.1-8.8,10.9l-3.6,4.7c-.4.6-.9,1.6-1.3,3l-.6,1.5-.2.2c-.7.6-.9,1.1-.4,1.5.1.1.3.5.4,1.1.1.6.4.9.6,1.1.7.3,1.7.9,2.9,1.9,1.2,1,2.2,1.6,3.1,1.9l.4.2c1.4.6,2.4.7,3,.4,2.1-.7,5.2-.9,9.2-.6h4.5c.6,0,1.4-.1,2.6-.4,1.9-.4,3.3-.6,4.4-.4,1.1.1,2.7.1,5,0h2.4c1.7.1,4.3.6,7.7,1.3l2.6.4c1.4.4,1.6,1.1.6,2.1-.6.7-1.5,1.4-2.8,1.9-1.3.6-2.1,1.1-2.6,1.7-1.7,2-3.3,3.6-4.9,4.7-.6.6-1.5,1.3-2.9,2.2-1.4.9-2.4,1.7-3.1,2.2l-4.9,4.9c-1.4,1.1-2.8,2-4.1,2.6-1,.3-2.3,1.3-3.8,3l-1.1,1.1ZM75.2,194.3c.6-.6.9-1,.9-1.3s-.1-.6-.4-.9c-.3-.3-.5-.4-.7-.4s-.5.1-.7.4c-.3.3-.4.5-.4.6.3.4.8.9,1.5,1.5ZM22,105.8h4.7v-2.4c0-1.4.6-2.4,1.9-3,3.1-1.4,5.3-2.8,6.4-4.3.4.1.7.1.9,0,.1-.1.3-.4.4-.9l.2-.6c.7-.7,1.5-1.9,2.4-3.6.7-1.6,1.4-2.6,1.9-3.2,1.3-2,1.9-4.1,1.7-6.2-.3-1.6-1-3.6-2.1-6-1.1-1.9-2.9-4.5-5.3-7.9l-1.9-3c-1.4-1.1-3.1-3.2-5.1-6.2-1.6-2.3-2.8-3.9-3.7-4.8-.9-.9-2.1-2.4-3.5-4.4l-1.7-2.1c-.6-.4-.9-1-.9-1.7v-.9c0-.7.2-1.1.5-1.3.4-.1,1,.2,1.8,1.1l1.1,1.1c.9,1,1.7,1.6,2.5,1.7.8.1,1.4.8,1.9,2,.5,1.2,1.4,2.2,2.7,3.1,1.3.9,3.1,2.5,5.6,4.9l2.4,2.4c2.7,2.7,5.6,4.8,8.5,6.4.7.3,1.6,1,2.6,2.1l1.3,1.3c.7-.3,1.4,0,1.9.6.6.7,1.1,1.1,1.5,1.1,2,2.1,4.2,3.9,6.6,5.3,2.4,1.4,4.5,3.5,6.2,6.2.4.7,1.2,1.4,2.4,1.9l.6.4c1,.6,1.6,1.1,1.7,1.7s0,1.4-.2,2.5c-.3,1.1-1.1,2-2.6,2.9-.9.4-1.4.9-1.7,1.3-1.1.1-2.6,1-4.3,2.6-1.3,1.3-2.3,2.1-3,2.4-.7.3-1.1,1-1.2,2,0,1.1.1,1.9.5,2.5l1.9,2.6,1.5,2.1c.7,1,1.9,2.2,3.6,3.6l1.5,1.3c3,2.6,4.9,4.8,5.8,6.6,0,.4.4.9,1.3,1.3.9.4,1.7,1.1,2.6,1.9.6.6,1.3,1.4,2.1,2.6,1.1,1.6,2.1,2.7,2.9,3.4.8.7,1.5,1.9,2.2,3.4.3,1,.6,1.7.9,2.1.6.6.9,1.1,1,1.5s.4.9,1,1.3c.6.4.8.9.6,1.3-.6,1.4-1.4,2.2-2.4,2.4-.6.3-1.3.9-2.1,1.7l-2.1,1.9c-.9.7-1.5,1.4-1.9,1.9-.7,1.1-2.3,2.6-4.7,4.3-1.6,1.3-2.7,2.3-3.4,3-.9,0-1.6.6-2.4,1.7-.4.7-.9,1.2-1.3,1.5-.9.4-1.9,1.7-3,3.8l-.2.4c-.1.3-.4.5-.6.6s-.5.1-.6,0c-.3-.4-.8-.6-1.6-.6s-1.2-.1-1.4-.4c-.3-.6-1.1-1.1-2.4-1.5-1.3-.4-2.1-1-2.5-1.6-.4-.6-.9-1.2-1.5-1.7s-1.3-.7-1.9-.6c-.6,0-1.1-.3-1.3-1.2-.2-.9-.6-1.2-1.2-1.1-2.7-2.3-6.9-5.3-12.6-9l-.6-.6c-.4-.4-.8-.7-1.1-.9-1.1-.7-1.5-1.7-1.1-3,.3-.4.7-.6,1.3-.6s1.1.1,1.5.4c1,.6,2.6.8,4.7.6,1.3-.1,2.2-.1,2.7,0s1.1.2,1.8.2c1.4-.1,2.4,0,3,.6.4.1,1,.1,1.6,0,.6-.1,1.2-.4,1.8-.9,1.1-.7,1.8-1.6,2-2.7.2-1.1-.2-1.9-1.2-2.5-.7-.4-1.7-1.1-3-2.1-2.3-1.7-4.1-2.8-5.6-3.2-.1,0-.2,0-.2-.2l-.2-.2c-.3-1.1-1.3-2.4-3-3.6-1-.9-1.7-1.5-2.1-1.9l-.6-.9c-.4-.7-.8-1.2-1.2-1.6-.4-.4-.9-.5-1.6-.3,0-.6-.1-1-.4-1.3s-.7-.6-1.4-.9c-.6-.3-1.1-.6-1.4-.9l-.6-.9c-.7-1.4-1.5-2.3-2.4-2.6l-.2-.4s-.2-.2-.6-.6c-1-.6-2.2-2-3.6-4.3l-1.5-2.6ZM50.2,126.9c0-.4,0-.7-.1-.9,0-.1-.3-.3-.7-.4-1.1-.3-2-.7-2.7-1.4-.6-.6-1.1-.6-1.5.2-.4.8-.4,1.4-.2,1.7.2.4.7.7,1.4,1,.7.3,1.1.6,1.1,1.1s0,.7.2.7c.1,0,.4,0,.6-.1l.6-.4c.6-.3,1-.5,1.2-.6.2-.1.2-.4.1-.9ZM48.5,79.5c-.4.3-.8.6-1.1.9-.6.4-.6,1.3-.2,2.6h.6c.6-.1.8-.6.6-1.5v-1.9ZM149.4,164.6c-.4,0-1.1-.1-1.9-.4-2.6-.4-4.5-.6-5.8-.4-1.7.1-4.1.6-7.3,1.5-1.6.3-3.8.4-6.6.4h-4.1c-.7,0-1.1-.4-1.3-1.1-.1-.7,0-1.4.6-1.9,1.4-1.6,2.6-3.2,3.6-4.9.3-.6.9-1.3,1.8-2.1.9-.9,1.5-1.7,1.8-2.6,0-.4.4-.9,1.1-1.5l.9-.6,17.1-17.1c1.1-1.1,1.7-2.2,1.7-3.1s-.8-1.9-2.4-2.9c-1.6-1-3.9-2.7-7.1-5.1-3.7-2.6-6.6-4.5-8.5-5.8-.6-.3-1-.7-1.3-1.4-.3-.6-.3-1.2-.1-1.6s.4-1,.6-1.8c.2-.8.5-1.5.9-2,.4-.6.9-1,1.6-1.3.7-.3,1.5-.8,2.2-1.5s1.3-1.5,1.6-2.4c.1-.4.4-.9.9-1.3,1.6-1.3,3.6-3.5,6.2-6.6,2.3-2.7,4.1-4.6,5.4-5.8s2.1-2,2.1-2.5.5-.9,1.2-1.2c.4-.1.7-.3.7-.4s0-.4-.1-.9l1.3-.9c1.6-1,2.6-1.9,3.1-2.7s1.3-1.9,2.5-3.3l.9-.9c.9-.7,1.6-1.2,2.1-1.5.3,0,.6-.2.9-.6.6-.7,1.1-1,1.7-.9.1,0,.3-.2.4-.6l.2-.4c.6-.3,1.3-1,2.1-2,.9-1.1,1.6-1.8,2.4-2.2,1.1-.6,2.4-1.9,3.8-4.1l.4-.6c.3-.4,1.1-1,2.6-1.7.9-.6,2-1.7,3.4-3.4l1.9-1.9c.6-.4,1-.5,1.2-.2.2.3.3.8.2,1.6,0,.8-.6,1.7-1.6,2.7l-.4.4c-1,1.3-2.3,3.3-3.8,6-1.1,2-2,3.4-2.7,4.3-.6.9-1.4,2.1-2.2,3.8-1.1,2.1-2.1,3.6-3,4.5-.3.3-.5.9-.6,1.7-.1,1.1-.5,2-1.1,2.6l-.4.4c-1.4,1-2.2,2.1-2.4,3.2-1,.6-1.9,1.8-2.6,3.6-.4,1.3-.9,2.1-1.3,2.6s-.9,1.2-1.5,2.4l-.9,1.3-.4,1.3c-.6,1.3-1.1,2.2-1.7,2.8-.9,1.3-1.2,2.5-1,3.7s.9,2.2,2,3.1c1.6,1.1,3.8,2.9,6.8,5.3l5.3,4.1c1.4,1,3.2,2.6,5.3,4.9,1.4,1.4,2.6,2.5,3.4,3.2.3.3.4.6.4.9s-.1.6-.4,1.1c-.1,0-.4.1-.6.4-1.4,1.1-3.3,3.1-5.8,5.8-2.1,2.3-3.8,3.9-4.9,4.9-1,.7-1.5,1.6-1.5,2.6.1.6-.1,1.1-.9,1.5-.3.4-.5.7-.6.9-1.7,1.4-3.9,3.9-6.6,7.5-2.1,2.7-3.8,4.6-4.9,5.8s-.8,1.2-1.1,2.2c-.3,1.1-.6,1.8-.9,2.2-.4,1.3-1.3,1.8-2.6,1.5-.1-.1-.4-.3-.6-.4h-1.3ZM150.5,160.1c.1,0,.3,0,.4-.2l-.6-.4-.2.4c.1.1.3.2.4.2h0ZM.9,147.2c.7.7,2,1,4,1,1.9,0,3.2.2,4,.7.4-.1,1,0,1.8.3.8.4,1.4.5,1.8.4.4,0,1.2,0,2.4.1h1.1c1.1-.1,2.8,0,4.9.6l1.1.2c.3,0,.6.2,1,.5.4.4.7.5,1,.5,1-.1,2.5,0,4.5.4l1.7.4h.9c.3,0,.8-.1,1.5-.4,1.4-.6,2.5-.6,3.2-.2l1.1,1.1,2.6,1.9,2.4,1.9c1.4,1.3,2.6,2.2,3.4,2.9.9.6,2.4,1.5,4.5,2.5l2.1.9,1.9,1.5c.3.1.5.4.5.7,0,.4,0,.7-.1,1,0,.6-.4,1.2-1.3,2s-1.4,1.5-1.5,2.2c0,.3-.4.4-1.3.2h-.4l-1.1.2c-1.1,0-2.1.2-2.8.6s-1.6.4-2.6,0c-.6-.3-1.4-.8-2.4-1.5l-.2-.2c-1.6-1.3-3.1-2.2-4.5-2.8-.6-.1-1.3-.6-2.1-1.4-.9-.8-1.6-1.2-2.4-1.2-.7-.7-2-1.3-4-1.8-1.9-.5-3.2-1.2-4-2-.3-.3-.7-.4-1.3-.4h-.4c-1,.1-1.9-.2-2.6-1.1-1-1.6-2.6-2.5-4.7-2.8-.7-.3-1.8-.8-3.3-1.5-1.5-.7-2.7-1.2-3.6-1.5-.9-.3-2.2-.9-4-1.7-1.1-.7-2-1.3-2.7-1.7s-1-1-1-1.7v-.2c0-.6.3-.9.9-.9ZM164.1,166.5c-.6-1.4-.6-2.9,0-4.5.3-.9,1-2.1,2.1-3.6l.9-1.5c.3-.6.9-1.4,1.7-2.4,1.1-1.4,1.9-2.6,2.4-3.4.3-.6.9-1.4,1.9-2.4s1.6-1.9,1.9-2.6c.9-1.1,1.9-1.1,3,0l.2.2c.6.6,1,.9,1.4,1s.8-.2,1.4-.7.4-.1.6,0h.2c3,.3,5.6-.3,7.7-1.7h1.5c1,.1,2.4,0,4.3-.5s3.2-.7,4.1-.5c.3,0,.6-.2,1.1-.5.4-.4.7-.5,1-.4.2,0,.5,0,.7-.3s.6-.4.9-.2c1.4.3,3.4-.1,6-1.3l1.1-.4c1-.4,1.9-.6,2.7-.6s1.5.4,2.2,1.1c-.4.3-1.1.7-2,1.2-.9.5-1.6,1-2,1.4l-.9.4c-.6-.3-1.1-.3-1.6-.1-.5.2-1.1.6-1.8,1.2-.7.6-1.4.9-1.9.9-.9,0-2.1.6-3.6,1.7l-.9.6c-2,1.6-5.1,3.3-9.2,5.1l-3,1.3c-.6.3-1.4.8-2.5,1.5-1.1.7-1.9,1.2-2.5,1.4-.6.2-1.4.6-2.5,1.2s-1.9,1-2.5,1.3c-1,.4-2.4,1.1-4.1,1.9l-1.9,1.1-.6.4-.4.4c-.6.7-1.3,1.2-2.1,1.5-.4.1-1.2.3-2.4.5-1.1.2-2,.4-2.6.5h0Z" inkscape:connector-curvature="0"/>
</svg>