<?xml version="1.0" encoding="UTF-8"?>
<svg id="svg16" xmlns="http://www.w3.org/2000/svg" xmlns:svg="http://www.w3.org/2000/svg" xmlns:sodipodi="http://sodipodi.sourceforge.net/DTD/sodipodi-0.dtd" xmlns:rdf="http://www.w3.org/1999/02/22-rdf-syntax-ns#" xmlns:inkscape="http://www.inkscape.org/namespaces/inkscape" xmlns:dc="http://purl.org/dc/elements/1.1/" xmlns:cc="http://creativecommons.org/ns#" version="1.1" viewBox="0 0 215 215">
  <!-- Generator: Adobe Illustrator 29.3.1, SVG Export Plug-In . SVG Version: 2.1.0 Build 151)  -->
  <sodipodi:namedview id="namedview18" bordercolor="#666666" borderopacity="1" fit-margin-bottom="0" fit-margin-left="0" fit-margin-right="0" fit-margin-top="0" gridtolerance="10" guidetolerance="10" inkscape:current-layer="svg16" inkscape:cx="-54.697114" inkscape:cy="37.796196" inkscape:pageopacity="0" inkscape:pageshadow="2" inkscape:window-height="1017" inkscape:window-maximized="1" inkscape:window-width="1920" inkscape:window-x="-8" inkscape:window-y="-8" inkscape:zoom="1.84375" objecttolerance="10" pagecolor="#ffffff" showgrid="false"/>
  <g id="g835">
    <path id="path4" d="M60,209c.4-.6,0-1.1-.9-1.1s-1.3-.5-1.1-2.1c.4-1.7,0-2-1-1.7-.8.2-.4-.4,1.1-1.1,1.3-.9,2.4-1.9,2.4-2.4s.6-1.3,1.3-2c.7-.8,1.3-2.6,1.3-4s.4-2.6.9-2.6-.1,1.5-.1.8.5-1.9,1.2-2.5c.6-.7,1.5-2.1,1.8-3.2.4-1.1,1.1-1.9,1.5-1.9s.8-.6.8-1.3.4-1.3.9-1.3.9-.5.9-1.2.6-1.4,1.3-1.8c.7-.3,1.3-1.3,1.3-2.3s-.6.2,0,.2,1.5-1.4,2.2-3.1c.7-1.8,1.9-3.4,2.6-3.7.7-.3,1.3-1.4,1.3-2.6s.5-2.4,1.1-2.7c1.2-.8,1.1-1.6,1.8-3.8.4-.9.9-1.6,1.3-1.6s.8-.5.8-1.1c0-2.1,3.3-5.1,5.7-5.1s2.3.4,2.3.9.8.9,1.8.9,1.8.6,1.8,1.3.6,1.3,1.3,1.3,1.3.6,1.3,1.3.8,1.3,2,1.3c2.1,0,5.1,1.9,5.1,3.2s-1.4,1.9-3.1,3.5c-1.7,1.4-3.1,3.2-3.1,3.8s-.4.9-.9.6c-.8-.5-7.1,5.1-7.1,6.2s-2.5,1.8-3.3,1.8-.8.5-.8,1.1-1,1.8-2.2,2.4c-1.2.6-2.2,1.7-2.2,2.4s-.6,1.1-1.3,1.1-1.3.4-1.3,1c0,1-4.8,6.1-5.8,6.1s-.7-1-6.7,4.8c-.9.8-1.3,1.8-1,2.3.3.5.2.6-.4.4-.9-.5-3.8,2.3-3.8,3.8s-.5.8-1.1.7c-.6-.2-1.1.4-.9,1.2,0,.8-.3,1.8-.8,2.1-.7.4-.8.3-.4-.4h0Z" inkscape:connector-curvature="0"/>
    <path id="path6" d="M167.3,196.7c0-.7-.4-1.4-.7-1.6-.4,0-2-2-3.7-4.3-1.7-2.2-3.3-4.2-3.5-4.4s-1.9-2.2-3.5-4.3c-3.9-5.1-5.8-7.2-11.3-13.2-2.6-2.7-4.7-5.3-4.7-5.7s-.6-1.2-1.3-2c-1.2-1.1-1.2-1.7,0-4.5,1.2-2.9,1.2-3.1-.4-3.1s-1.7.4-1.7.9-.7.9-1.5.9-2.6,1.1-3.7,2.2c-1.1,1.2-2.4,2.2-2.8,2.2s-.8.6-.8,1.3-.4,1.4-.9,1.4c-.4,0-1.2.2-1.8.3-.4,0-1.3.6-1.9,1.2-1.7,1.6-8.7,1.4-9.3-.3-.4-.7-1.1-1.3-1.9-1.3s-1.1-.5-.8-1.3c.4-1-.2-1.3-2.1-1.3s-2.7-.4-2.7-.9-.4-.9-1-.9-1.5-.5-2.2-1.2c-.6-.7-1.7-1.5-2.3-1.7-.9-.4-.8-.7.2-1.5,1.1-.9,1-1-.6-.6-1.1.3-2.4,0-3-.8-.5-.7-1.5-1.2-2.1-1.2s-1.6-.6-2.2-1.3c-.6-.7-2.4-1.3-4-1.3s-3.1-.4-3.3-.9c-.2-.5-5.1-1.1-12.2-1.2l-11.9-.4-.4-2.9c-.2-1.8.2-3.3.9-3.9.6-.5,1.6-1.7,2.1-2.7s2-1.9,3.4-2c1.2-.2,2.1-.6,1.9-1-.3-.4.4-1.2,1.6-1.9,2-1.1,2-1.1.4-2.7-.9-.9-2-1.7-2.5-1.7-1.1,0-1.7-3.2-2.4-13.9-.4-6.1-1-9.4-1.8-10.1-1.6-1.3-1.6-4.3,0-4.3s2.1-1.7,3.3-3.7c1.1-2,3.2-4.8,4.4-6,1.3-1.3,2.7-3.5,3-4.8s1-2.1,1.4-1.9c.5.4.9-1.4.9-4.3s.4-5.1,1.1-5.5c.6-.4.7-.2.3.6-.6,1.1-.4,1.1.5,0s.9-1.3.3-1.8c-1.7-1.1-2-3.6-2.2-15.8,0-11.1,0-12.1,1.8-13.7,1.1-1.1,3.1-1.7,5.8-1.7s4.1-.4,4.3-1.1c.2-.6,1.4-1.1,2.7-1.3,2.1-.2,2.3,0,2.3,3.5s-.4,3.4-1,3c-.6-.4-.7,0,0,1,.4,1,1.6,3.3,2.5,5.1,2.5,5.3,7.6,11.2,9.7,11.2s2.1.5,3.5,1.2,3.2,1.3,3.9,1.5c2,.3,8.9-1.1,9.4-1.9.3-.4,1.5-.8,2.8-.9,1.3,0,1.9-.3,1.2-.5-.8-.4-.4-1.3,1.3-3.6,1.3-1.9,2.7-3.4,3.1-3.5s.7-1.1.7-2,.6-1.9,1.3-2.2c1-.4,1.3-1.9,1.3-6s.4-5.9,1.1-6.6c1.3-1.3,5.7-1.4,6.5-.2.3.5,2.7,1,5.1,1,2.6,0,3.9.3,3.1.5-1.5.4-1.5.5-.2,1.9,1.4,1.3,1.4,3.1,0,11.7-.3,1.2-.6,4.3-1,6.9-.4,2.6-1,4.9-1.3,5.1-1.1.6-1,6.6,0,6.6s.8.3.8.7c0,.4,0,3.1,0,6.2,0,4.3.4,5.5,1.4,5.5s1.2.4,1.1,1.1c0,.6.4,1.1,1.1,1.1.7,0,1.2.7,1.2,1.5,0,.8.4,1.2,1,1.1.6-.3,1.3.2,1.6.9.4.9,1.7,1.4,3.5,1.4,4.7,0,6.3,1.9,5.8,6.4-.4,2.1-1.1,8.3-1.7,13.8-.6,6-1.4,9.9-2,9.9-1.2,0-5.8,4.6-5.8,5.9s.4.2.9-.5c.7-1.1.9-1.1.9.3s.7,1.5,2.7,1.5,2.7.4,2.7.9,1.6,1.2,3.5,1.8,3.5,1.1,3.5,1.4-.6.4-1.3,0c-.7-.3-1.3,0-1.3.4s.7.9,1.6.9,1.2.2.3.8c-1,.6-1,.9,0,1.3.7.3.2.4-1.1,0-1.2-.2-3,.2-4,.9-.9.7-2.4,1.3-3.2,1.3-1.7,0-7.2,2.7-7.6,3.8-.2.4-1,.6-1.7.6-1.8,0-7.6,5.9-7,7,.4.4,1.4.6,2.6.4,1.3-.3,1.1,0-.5.6-1.9.7-2.8.7-3.5,0-1.4-1.4-1.8-1.2-4.7,1.3-2.4,2.1-2.4,2.3-.5,1.9,1.1-.3,1.9,0,1.9.3,0,1.1,2.5.5,3.7-.7s1.8-1.1,2.7-1.1c1.8,0,6.8,4.5,6.8,6.1s.4,1,1,1c1.2,0,6.1,4.9,6.1,6.1s.4,1,.9,1,1.4,1,1.9,2.2,1.8,2.2,2.7,2.2,1.4.4,1.1.9c-.3.5,0,.9.4.9s1,.5,1,1.1,2,3,4.4,5.2c2.5,2.3,4.4,4.5,4.4,5.1s1.1,1,2.5,1,2.1.2,1.1.9c-.9.5-1,.9-.2.9s1.1,1.1,1.1,2.7-.4,2.7-.7,2.7-1.3,1.1-1.9,2.3c-.7,1.2-2.3,2.5-3.7,2.7-1.3.3-2.5.8-2.5,1.2s-1.1.8-2.7.8-2.7-.4-2.7-1.2h0ZM68.6,139.5c0-2.1-1.8-1.9-2.1.3-.2.8.3,1.5.9,1.5s1.2-.8,1.2-1.8h0ZM104,131.5c.3-.4,0-.9-.4-.9s-1,.4-1,.9.2.9.4.9c.3,0,.7-.4,1-.9ZM106.6,127.1c.3-.4.4-.9,0-.9s-.7.4-1,.9c-.3.5-.4.9,0,.9s.7-.4,1-.9ZM112.8,123.6c1.6-1.8,1.2-3.6-.6-3.6s-.5.4.3.9c1.1.6.9,1.1-.8,2.6-1.1,1.1-1.8,1.9-1.2,1.9s1.6-.8,2.4-1.7h0ZM120.4,123.5c0-.4-.9-.9-1.9-.8-1.9,0-1.9,0-.3.8,1,.4,1.9.8,2,.8,0,0,.2-.3.2-.8h0ZM115.9,108.7c0-5.9.4-9.7.9-9.8,1.3-.4,1.2-11.4,0-11.9-.7-.3-.2-1.8,1.4-4.1,2.4-3.6,2.4-3.7.8-6.1-.9-1.4-1.5-2.7-1.4-3.1,0-.4-1.3-.7-3.3-.7-3.1,0-3.6.4-5,3.2s-1.3,3.3,0,5.2c1.1,1.8,1.4,5.1,1.4,18.2s0,16,1.7,16,1.9-.7,2.1-2.4c.3-1.8.4-1.6.4.8,0,1.8-.3,3.1-.6,3-.3-.2-1.2,0-2.2.4-1.5.5-1.2.7,1.1.7h2.8c0,0,0-9.4,0-9.4h0ZM94,71.8c1.2-1.8.7-3.6-1.6-6.2-1.3-1.3-2.4-3.4-2.5-4.4,0-1.2-.8-1.9-2.1-2.1-2.4-.4-3.5,2-2,4.3.7,1.3.7,2.1,0,3.4-2.7,4.5,5.4,9.4,8.3,5.1h0ZM129.2,66.4c0-1.7-.4-2-1.8-1.7-2.2.6-2.3,2.7-.2,3.2.8.3,1.6.4,1.8.5,0,0,.2-.9.2-2ZM141.5,63.5c.2-3.2,0-4.7-.8-4.7s-1.6-.7-2.2-1.5q-1.1-1.5-1.2,0c0,1.9-2.7,2-2.7.2s-.4-1.3-1.1-1.3-.7.3-.4.6c.4.3-.2,1.1-1.1,1.8-1.8,1.2-1.8,1.3.4,3.2,1.9,1.7,2,1.9.6,3-1.3,1-1.3,1.1,0,1.1.8,0,1.8.6,2,1.4.4.9,1.4,1.2,3.4,1.1,2.8-.3,2.9-.4,3.2-4.9h0ZM144.1,40.4c-2.2-.4-2.7,0-1.9,1.9.5,1.4.7,1.4,2.1,0,1.4-1.5,1.4-1.6-.2-1.9h0Z" inkscape:connector-curvature="0"/>
    <path id="path8" d="M140.8,151.2c0-.4.6-.8,1.3-.8s1.3.4,1.3.8-.6.7-1.3.7-1.3-.4-1.3-.7Z" inkscape:connector-curvature="0"/>
    <path id="path10" d="M37.7,114.2c-1-.7-2.7-1.3-3.7-1.3s-2.1-.3-2.3-.6c-.4-1-3.9-3.8-5.4-3.8s-4.5-3.2-8.6-7.1c-4-3.9-7.8-7.1-8.4-7.1s-1.1-1.1-1.1-2.6-.6-3.2-1.3-4c-.7-.7-1.3-2.1-1.3-3s-.4-1.9-1-2.1c-.5-.2-1.1-2.2-1.4-4.5-.5-4.2,1.1-8.1,3.9-9.7.6-.4,1.1-1.4,1.1-2.4s.8-1.9,1.9-2.2c1-.4,3.3-2.1,5.1-4.1,2-2.1,4.2-3.5,5.5-3.5,1.2,0,1.8-.3,1.2-.4-.6-.3.3-1.7,2.1-3.5,3.4-3.4,4.6-3.8,4.6-1.8s-.4,1.3-.9,1.3-.9,1.6-.9,3.5v3.5h3.8c2.7,0,1.4.3.4.9-.9.5-1,.9-.2.9s1.1.6,1.1,1.3.4,1.3.9,1.3c.9,0,1.2-1.2,1-3.3,0-.6.3-1.1.7-1.1,2,0,8.9-7.7,9.1-10.4.2-1.7,1.5-3.8,3.6-5.8,1.8-1.8,3.3-3.5,3.3-4.2s.6-1,1.3-1,1.3-.4,1.3-.9.6-.9,1.3-.9,1.3.8,1.3,2.2.4,2.2,1.8,2.2,2-.6,2.3-1.3c.4-.7,1-1.3,1.6-1.3,1.1,0,2.2-4,2.2-5.9s.4-1.1.9-1.1c.9,0,3.5-1.9,6.8-5.1,1.2-1.1,2.6-1.8,3-1.5.4.4,1.1,0,1.3-.8.3-.8,1.1-1.4,1.9-1.4s1.1.4.7.8c-.3.4.4,1,1.4,1.1l1.9.3-1.9,2.1c-1.1,1.1-1.9,2.8-1.9,3.8s-.3,1.6-.7,1.6-1.4,1.5-2.4,3.4c-1,1.8-1.9,3.5-2.2,3.7s-1.8,2.4-3.3,4.7c-5,7.2-3.7,14,3.8,20.6,2,1.7,3.7,9.3,2.2,9.3s-.5,1-.3,2.2c.4,1.9,0,2.2-1.7,2.3-1.1,0-1.6.3-1,.5,1.4.5,1.3,1.8-.2,1.8s-1.1-.7-.9-2c.2-1.1,0-2.3-.6-2.7-.7-.4-.8-.3-.4.6.7,1.1.5,1.1-.7,0-.8-.6-1.2-1.5-1-1.9s-.2-.8-.9-.8-1.4-.4-1.4-1c0-1.1-4.3-6.1-5.4-6.1s-.7-1.7.9-2c.8-.3-.7-.3-3.4,0-2.7.3-5,.9-5.1,1.2-.2.4-.8.8-1.4.8-1.2,0-5.9,4.8-5.9,6.1s-.6,1-1.3,1.3c-.7.3-1.3,1.1-1.3,1.8s-.4,1.4-1,1.6-1.1,2.7-1.4,5.7c-.4,4.3,0,6.1,1.3,9.4,1.9,4.2,5.1,6.9,8,6.9s5.5,3.5,5.5,5.2.4.8.9.5c.5-.4.9.4.9,1.7s.4,2.3,1.6,2.3,1.2.2.4.8c-1,.6-1,.8,0,1.2.9.3,1.1,1.2.9,2.7-.5,2.4-2.9,3.3-2.9,1s-3-1.8-4.4,0c-.8,1.1-1.5,1.1-3.2.4-1.6-.8-2.5-.7-3.2,0-1.5,1.5-7,1.2-9-.3h0Z" inkscape:connector-curvature="0"/>
    <path id="path12" d="M159.9,84.8c-1.3-.4-1.4-.6-.4-1.2.9-.5.5-.8-1.1-.8s-2.9-.8-2.6-3c0-.4-.5-.5-1.3-.2-1.1.4-1.3.2-1-1.2.3-1,0-2.4-.8-3-1.4-1.5-1.7-3.5-.4-2.7.5.4.9-.7.9-2.6s.5-3.5,1.1-3.8c1.2-.8,3.1-3.6,3.8-5.8.4-1.1,1.5-1.6,3.5-1.6s3-.4,3.3-2.2c.3-1.2.2-2.2-.3-2.2s-1.9-1.1-3.5-2.7c-1.5-1.4-3.3-2.7-4-2.7-2.2,0-1.5-3.3,1.4-6.1,2.7-2.7,4.3-3.5,4.3-1.9s1,1.1,2.2,1.3c1.2.4,2.2,1,2.2,1.4s.6.9,1.3.9,1.3.5,1.3,1.1,1,1.5,2.1,2c1.9.9,2.2.8,2.7-1.1.4-1.1,1-2.1,1.4-2.1s.9-.6.9-1.3.4-1.3.8-1.3,1.1-.9,1.5-1.9c.4-1.1,1.9-3.4,3.5-5.1,1.7-1.7,3-3.4,3-3.7s-2.8,2.3-.1-.5c4.6-4.6,6-7.7,4-8.9-.4-.3-.9-1.5-.9-2.7s.4-2.1.9-2.1.9-.6.9-1.4.5-1.2,1.3-.9c.7.3,1.9,0,2.6-.8,1.6-1.6,4.7-1.7,6.1-.2.6.5,2,2.6,3.3,4.3,1.2,1.9,3,3.5,3.9,3.5,2.7.4,2.8,2.5.3,2.5s-2.7.9-3.6,2.2c-.8,1.2-2.3,2.2-3.4,2.2-2,0-1.5-.6-2.4,2.4-.4,1.5-1.9,3.3-7.6,9.6-1.4,1.5-2.5,3.1-2.5,3.5s-.4.8-.8.8-1,.7-1.3,1.6c-.3.8-1.2,2.7-2.2,4.2-1.9,2.9-2.4,5.8-1,5.8s.9.5.9,1.1c0,.5,1.7,2.3,3.5,3.7,1.9,1.5,3.5,3.2,3.5,3.8,0,.5.4,1.1,1,1.1,1.7,0,3.7,2.7,3.8,5.2,0,1.7-.4,2.4-1.5,2.4s-1.4-.4-1.1-1.1c.4-1.1-2.4-3.9-4.2-4-.5,0-.3-.4.7-.8,1.7-.7,1.7-.8-.2-.8-1.1,0-2,.4-2,.9s-.4.6-.9.4-.6,0-.4.8c.3.8.9,1.4,1.3,1.4s.8.8.8,1.8.4,1.6,1.5,1.1c1-.4,1.2-.3.8.4-.8,1.3-4.1,1.4-4.1.2s-.4-.9-1-.9-2.6-1.6-4.4-3.5c-3.3-3.5-4.2-3.9-7.2-3.7-1.2,0-1.6.9-1.6,3.5s-1.9,7-4.2,8.4c-.6.4-1.1,1.1-1.1,1.8s-1.1,1.9-2.3,2.8c-2.1,1.5-2.1,1.8-.6,2.3,1.3.5,1.1.7-.6.6-1.2,0-3-.3-3.9-.4h0ZM177.1,63.6c0-.2-1-.3-2.1-.2-1.2,0-2,.4-1.8.8.4.6,3.9,0,3.9-.6h0ZM172.2,62.4c.3-.5,0-.6-.8-.4-1.6.6-1.9,1.2-.6,1.2s1.1-.4,1.4-.9h0Z" inkscape:connector-curvature="0"/>
    <path id="path14" d="M82.3,21.7c0-.4-1.1-1-2.4-1.1l-2.5-.3,2.8-1.6c1.6-.8,4.1-2.7,5.6-4.2,1.5-1.5,3.1-2.7,3.5-2.7,2.3,0,1.4,2.2-2.7,6.3-2.4,2.5-4.4,4.1-4.4,3.5h0Z" inkscape:connector-curvature="0"/>
  </g>
</svg>